<?xml version="1.0" encoding="UTF-8"?>
<svg version="1.1" xmlns="http://www.w3.org/2000/svg" width="256" height="256">
<path d="M0 0 C4.62 0 9.24 0 14 0 C14 0.66 14 1.32 14 2 C15.32 2 16.64 2 18 2 C18 2.66 18 3.32 18 4 C18.928125 4.2165625 18.928125 4.2165625 19.875 4.4375 C22 5 22 5 24 6 C24 6.66 24 7.32 24 8 C24.99 8 25.98 8 27 8 C27 8.66 27 9.32 27 10 C27.928125 10.4640625 27.928125 10.4640625 28.875 10.9375 C30.25 11.625 31.625 12.3125 33 13 C33 13.66 33 14.32 33 15 C33.763125 15.28875 34.52625 15.5775 35.3125 15.875 C38 17 38 17 41 19 C41 19.66 41 20.32 41 21 C43.81288705 20.85980308 46.62516885 20.71312045 49.4375 20.5625 C50.64116211 20.50352539 50.64116211 20.50352539 51.86914062 20.44335938 C55.75239561 20.5945704 55.75239561 20.5945704 59 19 C60.75558658 18.85443582 62.51656108 18.77276438 64.27734375 18.71875 C65.88319336 18.66267578 65.88319336 18.66267578 67.52148438 18.60546875 C69.21241211 18.55326172 69.21241211 18.55326172 70.9375 18.5 C73.15508247 18.43129693 75.37254543 18.35858211 77.58984375 18.28125 C79.07278931 18.23581055 79.07278931 18.23581055 80.58569336 18.18945312 C83.01052587 18.15135019 83.01052587 18.15135019 85 17 C87.31082534 16.90264181 89.62462958 16.87022627 91.9375 16.875 C93.18402344 16.87242188 94.43054688 16.86984375 95.71484375 16.8671875 C99 17 99 17 102 18 C103.47965926 18.14573058 104.96403843 18.24663268 106.44921875 18.31640625 C107.72055664 18.37924805 107.72055664 18.37924805 109.01757812 18.44335938 C109.89865234 18.48267578 110.77972656 18.52199219 111.6875 18.5625 C113.02651367 18.62727539 113.02651367 18.62727539 114.39257812 18.69335938 C116.59490108 18.79935353 118.79733473 18.90142051 121 19 C121 19.66 121 20.32 121 21 C124.63 21 128.26 21 132 21 C132 21.66 132 22.32 132 23 C134.91517292 21.92598892 136.77810176 21.22189824 139 19 C139.99 19 140.98 19 142 19 C142 18.34 142 17.68 142 17 C143.92808522 15.4197956 145.85212827 13.94887609 147.875 12.5 C152.11256229 9.46302235 152.11256229 9.46302235 156 6 C156.99 6 157.98 6 159 6 C159 5.34 159 4.68 159 4 C159.99 4 160.98 4 162 4 C162 3.34 162 2.68 162 2 C167.12919186 -0.10428384 171.5610835 -0.21755666 177 0 C177 0.66 177 1.32 177 2 C177.721875 2.061875 178.44375 2.12375 179.1875 2.1875 C182.90666917 3.26192665 184.54777495 5.05732994 187 8 C187 8.99 187 9.98 187 11 C187.66 11 188.32 11 189 11 C189 13.97 189 16.94 189 20 C189.66 20 190.32 20 191 20 C191.02505615 20.72179443 191.0501123 21.44358887 191.07592773 22.18725586 C191.19151302 25.437535 191.31440774 28.68749688 191.4375 31.9375 C191.47681641 33.07380859 191.51613281 34.21011719 191.55664062 35.38085938 C191.61948242 37.00024414 191.61948242 37.00024414 191.68359375 38.65234375 C191.73858032 40.15269165 191.73858032 40.15269165 191.79467773 41.68334961 C191.74671841 43.96069188 191.74671841 43.96069188 193 45 C193.14510891 46.60947472 193.2271111 48.22474795 193.28125 49.83984375 C193.33732422 51.3103418 193.33732422 51.3103418 193.39453125 52.81054688 C193.42933594 53.84244141 193.46414062 54.87433594 193.5 55.9375 C193.56873045 57.96759397 193.64145021 59.99755802 193.71875 62.02734375 C193.74904297 62.93218506 193.77933594 63.83702637 193.81054688 64.76928711 C193.8646717 67.03760898 193.8646717 67.03760898 195 69 C195.31583446 72.37328752 195.51133762 75.74734365 195.71875 79.12890625 C195.68299798 81.89459821 195.68299798 81.89459821 197 83 C197.33333333 85.33333333 197.66666667 87.66666667 198 90 C198.33 90.33 198.66 90.66 199 91 C201.66446655 104.65539105 202.07074197 118.62803022 202.125 132.5 C202.13200928 133.71840576 202.13200928 133.71840576 202.13916016 134.96142578 C202.11334978 144.64825881 201.41080977 154.79551652 197.4375 163.75 C196.18825596 166.57437783 195.4596396 168.96637862 195 172 C194.34 172 193.68 172 193 172 C193 173.32 193 174.64 193 176 C192.34 176 191.68 176 191 176 C190.855625 176.763125 190.71125 177.52625 190.5625 178.3125 C190 181 190 181 189 184 C188.34 184 187.68 184 187 184 C186.731875 184.721875 186.46375 185.44375 186.1875 186.1875 C185.00098638 188.99766383 183.72514361 191.48416557 182 194 C181.34 194 180.68 194 180 194 C180 194.99 180 195.98 180 197 C179.34 197 178.68 197 178 197 C177.71125 197.598125 177.4225 198.19625 177.125 198.8125 C176 201 176 201 174 204 C173.34 204 172.68 204 172 204 C171.67 204.99 171.34 205.98 171 207 C170.34 207 169.68 207 169 207 C169 207.66 169 208.32 169 209 C168.34 209 167.68 209 167 209 C167 209.66 167 210.32 167 211 C166.34 211 165.68 211 165 211 C165 211.66 165 212.32 165 213 C164.34 213 163.68 213 163 213 C163 213.66 163 214.32 163 215 C157.52380952 220 157.52380952 220 155 220 C155 220.66 155 221.32 155 222 C154.01 222 153.02 222 152 222 C152 222.66 152 223.32 152 224 C151.01 224 150.02 224 149 224 C149 224.66 149 225.32 149 226 C148.01 226 147.02 226 146 226 C146 226.66 146 227.32 146 228 C145.01 228 144.02 228 143 228 C143 228.66 143 229.32 143 230 C141.68 230 140.36 230 139 230 C139 230.66 139 231.32 139 232 C133.375 235 133.375 235 130 235 C130 235.66 130 236.32 130 237 C126.5980513 239.09350689 123.94727588 239.17942163 120 239 C120 239.66 120 240.32 120 241 C117.69 241 115.38 241 113 241 C113 241.66 113 242.32 113 243 C112.36191406 243.06058594 111.72382813 243.12117187 111.06640625 243.18359375 C110.24011719 243.26738281 109.41382813 243.35117188 108.5625 243.4375 C107.32693359 243.55931641 107.32693359 243.55931641 106.06640625 243.68359375 C104.01337975 243.78930815 104.01337975 243.78930815 103 245 C101.01242972 245.09983058 99.0213248 245.13080753 97.03125 245.1328125 C95.82082031 245.13410156 94.61039062 245.13539063 93.36328125 245.13671875 C92.08839844 245.13285156 90.81351562 245.12898437 89.5 245.125 C87.58767578 245.13080078 87.58767578 245.13080078 85.63671875 245.13671875 C83.82107422 245.13478516 83.82107422 245.13478516 81.96875 245.1328125 C80.84919922 245.13168457 79.72964844 245.13055664 78.57617188 245.12939453 C76 245 76 245 75 244 C73.48530552 243.76807135 71.96245438 243.58784762 70.4375 243.4375 C69.61121094 243.35371094 68.78492187 243.26992187 67.93359375 243.18359375 C67.29550781 243.12300781 66.65742187 243.06242188 66 243 C66 242.34 66 241.68 66 241 C63.69 241 61.38 241 59 241 C59 240.34 59 239.68 59 239 C57.02 239 55.04 239 53 239 C53 238.34 53 237.68 53 237 C51.35 237 49.7 237 48 237 C48 236.34 48 235.68 48 235 C47.319375 234.731875 46.63875 234.46375 45.9375 234.1875 C42.60289191 232.83946694 39.30256763 231.42463702 36 230 C36 229.34 36 228.68 36 228 C35.195625 227.8453125 35.195625 227.8453125 34.375 227.6875 C31.37497956 226.81907303 28.7620465 225.44379704 26 224 C26 223.34 26 222.68 26 222 C25.4225 221.731875 24.845 221.46375 24.25 221.1875 C21.94449957 219.97070811 19.97943808 218.69666121 18 217 C18 216.34 18 215.68 18 215 C17.34 215 16.68 215 16 215 C16 214.34 16 213.68 16 213 C15.401875 212.71125 14.80375 212.4225 14.1875 212.125 C12 211 12 211 9 209 C9 208.34 9 207.68 9 207 C8.34 207 7.68 207 7 207 C7 206.34 7 205.68 7 205 C6.34 205 5.68 205 5 205 C5 204.01 5 203.02 5 202 C4.34 202 3.68 202 3 202 C3 201.34 3 200.68 3 200 C2.34 200 1.68 200 1 200 C-0.7265625 197.8828125 -0.7265625 197.8828125 -2.625 195.125 C-3.25664063 194.22007812 -3.88828125 193.31515625 -4.5390625 192.3828125 C-6 190 -6 190 -6 188 C-6.66 188 -7.32 188 -8 188 C-8 187.01 -8 186.02 -8 185 C-8.66 185 -9.32 185 -10 185 C-10 183.68 -10 182.36 -10 181 C-10.66 181 -11.32 181 -12 181 C-12 179.68 -12 178.36 -12 177 C-12.66 177 -13.32 177 -14 177 C-14 175.35 -14 173.7 -14 172 C-14.66 172 -15.32 172 -16 172 C-16 170.35 -16 168.7 -16 167 C-16.66 167 -17.32 167 -18 167 C-18.65353514 164.52264586 -19.29789601 162.04345526 -19.9375 159.5625 C-20.11990234 158.87478516 -20.30230469 158.18707031 -20.49023438 157.47851562 C-22.6138043 149.17728773 -23.17416523 141.04627289 -23.125 132.5 C-23.12161621 131.63487793 -23.11823242 130.76975586 -23.11474609 129.87841797 C-22.77547711 86.77547711 -22.77547711 86.77547711 -17 81 C-16.7905639 79.02490127 -16.63196178 77.04428318 -16.5 75.0625 C-16.11004127 69.22008253 -16.11004127 69.22008253 -15 67 C-14.85910218 65.27273078 -14.77417312 63.54071368 -14.71875 61.80859375 C-14.68136719 60.78185547 -14.64398438 59.75511719 -14.60546875 58.69726562 C-14.53503 56.52018637 -14.46471795 54.34310302 -14.39453125 52.16601562 C-14.35714844 51.14056641 -14.31976563 50.11511719 -14.28125 49.05859375 C-14.25095703 48.11298584 -14.22066406 47.16737793 -14.18945312 46.19311523 C-14 44 -14 44 -13 43 C-12.85469013 41.30571693 -12.77283477 39.60589258 -12.71875 37.90625 C-12.68136719 36.87628906 -12.64398438 35.84632812 -12.60546875 34.78515625 C-12.57066406 33.70105469 -12.53585938 32.61695313 -12.5 31.5 C-12.43143859 29.36443906 -12.35874988 27.22900524 -12.28125 25.09375 C-12.25095703 24.14177734 -12.22066406 23.18980469 -12.18945312 22.20898438 C-12 20 -12 20 -11 19 C-10.76807135 17.48530552 -10.58784762 15.96245438 -10.4375 14.4375 C-10.35371094 13.61121094 -10.26992188 12.78492188 -10.18359375 11.93359375 C-10.12300781 11.29550781 -10.06242187 10.65742188 -10 10 C-9.34 10 -8.68 10 -8 10 C-7.690625 9.38125 -7.38125 8.7625 -7.0625 8.125 C-6.375 6.75 -5.6875 5.375 -5 4 C-4.34 4 -3.68 4 -3 4 C-3 3.34 -3 2.68 -3 2 C-2.01 2 -1.02 2 0 2 C0 1.34 0 0.68 0 0 Z " fill="#F3B143" transform="translate(39,6)"/>
<path d="M0 0 C2.375 1.8984375 2.375 1.8984375 4 3.625 C4 4.285 4 4.945 4 5.625 C4.66 5.625 5.32 5.625 6 5.625 C6 6.285 6 6.945 6 7.625 C6.99 7.955 7.98 8.285 9 8.625 C12.39819356 12.97521666 14.1414212 17.35347601 15.875 22.5 C19.04460499 31.41012957 19.04460499 31.41012957 25 38.625 C28.70744293 39.88039157 32.10406227 40.02119706 36 39.625 C37.89722184 38.4825425 39.56156755 37.1882468 41.2890625 35.8046875 C43.72994696 34.12170324 46.08686138 33.83815648 49 33.625 C49.042721 35.29111905 49.04063832 36.95882885 49 38.625 C48.67 38.955 48.34 39.285 48 39.625 C47.76572222 41.64094582 47.58663876 43.663474 47.4375 45.6875 C47.35371094 46.79222656 47.26992187 47.89695313 47.18359375 49.03515625 C47.12300781 49.88980469 47.06242187 50.74445313 47 51.625 C47.66 51.625 48.32 51.625 49 51.625 C49.99 54.1 49.99 54.1 51 56.625 C51.66 56.625 52.32 56.625 53 56.625 C53.33 57.285 53.66 57.945 54 58.625 C56.31141821 59.49893517 56.31141821 59.49893517 59 60.1875 C63.90802348 61.53302348 63.90802348 61.53302348 65 62.625 C66.66429051 62.72323937 68.33281931 62.75473631 70 62.75 C70.9075 62.75257813 71.815 62.75515625 72.75 62.7578125 C74.96966611 62.87673779 74.96966611 62.87673779 76 61.625 C77.99958364 61.58419217 80.00045254 61.58245644 82 61.625 C82 60.965 82 60.305 82 59.625 C82.78375 59.17125 83.5675 58.7175 84.375 58.25 C87.31833486 56.42793556 87.85812743 55.81382386 89 52.625 C89.27993521 49.02341651 89.27993521 49.02341651 89.1875 45.125 C89.18105469 43.8153125 89.17460937 42.505625 89.16796875 41.15625 C89.03780602 38.41980564 88.82440789 36.21034313 88 33.625 C90.90056497 34.07124076 92.23835221 34.80660168 94.625 36.625 C99.49707042 39.51215284 104.47417263 39.98221328 110.08203125 39.4140625 C114.43745159 37.62221951 116.77160537 32.55967748 119 28.625 C120.27171149 25.33900423 121.23218045 22.06190654 122 18.625 C122.66 18.625 123.32 18.625 124 18.625 C124.1546875 17.5421875 124.1546875 17.5421875 124.3125 16.4375 C125.6149178 11.10942717 128.17238507 8.24038008 132.45703125 4.88671875 C134.249867 3.47364597 134.249867 3.47364597 136.5625 0.9375 C141.37931969 -3.6323033 146.34756957 -3.79211014 152.6875 -3.8125 C153.48534912 -3.81564209 154.28319824 -3.81878418 155.10522461 -3.82202148 C161.78338407 -3.68697893 168.09538966 -2.27961034 173 2.625 C173.09946453 4.39359193 173.13080217 6.16611451 173.1328125 7.9375 C173.13410156 9.01257813 173.13539063 10.08765625 173.13671875 11.1953125 C173.13285156 12.32710937 173.12898437 13.45890625 173.125 14.625 C173.12886719 15.75679687 173.13273438 16.88859375 173.13671875 18.0546875 C173.13478516 19.66730469 173.13478516 19.66730469 173.1328125 21.3125 C173.13168457 22.30636719 173.13055664 23.30023438 173.12939453 24.32421875 C173 26.625 173 26.625 172 27.625 C171.9175 28.718125 171.835 29.81125 171.75 30.9375 C171.06392225 36.94068033 168.46150883 42.16567594 166 47.625 C165.33871094 49.12933594 165.33871094 49.12933594 164.6640625 50.6640625 C162.66094441 55.16804318 160.55677582 59.40770944 158 63.625 C157.54625 64.615 157.0925 65.605 156.625 66.625 C154.81138044 69.97322073 152.71459484 71.96096351 150 74.625 C148.69835777 76.05483427 147.39690882 77.48489865 146.10668945 78.92504883 C141.67730621 83.86297022 137.16513792 88.51753732 132.09765625 92.81640625 C129.98687591 94.58756861 129.98687591 94.58756861 128.12109375 96.52734375 C123.27905288 101.30873275 118.61954184 103.03536782 112.05078125 104.703125 C108.95017125 105.64005709 106.75633172 106.95271337 104 108.625 C101.56447497 109.56866367 99.16582488 110.44215512 96.6875 111.25 C96.02613037 111.46873779 95.36476074 111.68747559 94.68334961 111.9128418 C90.08797438 113.38744765 85.80577502 114.33076888 81 114.625 C88.34917001 101.345664 88.34917001 101.345664 93 97.625 C93.66 97.625 94.32 97.625 95 97.625 C95 96.965 95 96.305 95 95.625 C96.32 95.625 97.64 95.625 99 95.625 C99 94.965 99 94.305 99 93.625 C99.66 93.625 100.32 93.625 101 93.625 C101.08894531 93.05007812 101.17789063 92.47515625 101.26953125 91.8828125 C102.19201343 89.03150393 103.60736979 87.64748681 105.6875 85.5 C109.42651725 81.46562052 112.14716843 77.315811 114.7734375 72.49609375 C115.17820313 71.87863281 115.58296875 71.26117188 116 70.625 C116.66 70.625 117.32 70.625 118 70.625 C118 69.305 118 67.985 118 66.625 C118.66 66.625 119.32 66.625 120 66.625 C120.99 62.995 121.98 59.365 123 55.625 C120.525 56.12 120.525 56.12 118 56.625 C116.63979849 58.59258273 116.63979849 58.59258273 116 60.625 C115.01 60.625 114.02 60.625 113 60.625 C113 61.285 113 61.945 113 62.625 C112.34 62.625 111.68 62.625 111 62.625 C111 63.285 111 63.945 111 64.625 C108.92047027 66.07562773 106.86232119 67.3955499 104.6875 68.6875 C104.09259766 69.05166016 103.49769531 69.41582031 102.88476562 69.79101562 C95.64638685 74.16639319 89.33220142 74.19439873 81 73.625 C78.65429915 72.65436517 76.31979381 71.65601947 74 70.625 C68.73394792 70.06615366 63.89370676 69.63061124 59.12109375 72.13671875 C55.36123692 73.92959166 52.18924348 73.9660906 48.125 73.8125 C47.43664062 73.79896484 46.74828125 73.78542969 46.0390625 73.77148438 C44.35902999 73.7364837 42.6794065 73.68268954 41 73.625 C40.67 72.965 40.34 72.305 40 71.625 C38.989375 71.3775 37.97875 71.13 36.9375 70.875 C30.57895824 69.19415597 25.90737125 64.91809616 21.875 59.875 C19.30463743 56.67616966 17.08760396 55.50091513 13 54.625 C13.28875 55.32367188 13.5775 56.02234375 13.875 56.7421875 C14.24625 57.65226562 14.6175 58.56234375 15 59.5 C15.37125 60.40492188 15.7425 61.30984375 16.125 62.2421875 C17 64.625 17 64.625 17 66.625 C17.66 66.625 18.32 66.625 19 66.625 C19.66 69.595 20.32 72.565 21 75.625 C21.66 75.625 22.32 75.625 23 75.625 C23 76.615 23 77.605 23 78.625 C23.66 78.625 24.32 78.625 25 78.625 C28.5791802 81.75678267 30.28185786 84.27237325 32 88.625 C33.30518475 89.66147024 34.63461347 90.66922943 36 91.625 C36 92.285 36 92.945 36 93.625 C37.134375 93.893125 38.26875 94.16125 39.4375 94.4375 C40.613125 94.829375 41.78875 95.22125 43 95.625 C43.33 96.615 43.66 97.605 44 98.625 C45.485 99.12 45.485 99.12 47 99.625 C48.1875 103.1875 48.1875 103.1875 49 106.625 C49.66 106.625 50.32 106.625 51 106.625 C52.0064275 108.28779327 53.00585407 109.95483484 54 111.625 C55.485 112.615 55.485 112.615 57 113.625 C57 114.285 57 114.945 57 115.625 C41.43482982 111.98208783 27.35758899 107.21753042 14.16015625 97.99609375 C11.29874874 96.179902 8.31021325 94.95713493 5.140625 93.77734375 C2.20074586 92.19474458 0.29988996 90.04090814 -2 87.625 C-3.02453789 86.62727463 -4.05338235 85.63395717 -5.0859375 84.64453125 C-21.0238274 69.17688468 -21.0238274 69.17688468 -24 58.625 C-24.66 58.295 -25.32 57.965 -26 57.625 C-28.92617028 52.93855542 -30.62215205 47.95267875 -32 42.625 C-32.76359443 40.13138693 -33.53784442 37.6413212 -34.31640625 35.15234375 C-36.11579153 28.49975932 -36.31240997 21.91657105 -36.4375 15.0625 C-36.48326172 14.03447266 -36.52902344 13.00644531 -36.57617188 11.94726562 C-36.68563536 4.60369351 -36.68563536 4.60369351 -34.75195312 1.84350586 C-26.14167002 -5.57522343 -9.2201231 -6.31749175 0 0 Z " fill="#F0E9D3" transform="translate(60,125.375)"/>
<path d="M0 0 C4.62 0 9.24 0 14 0 C14 0.66 14 1.32 14 2 C15.32 2 16.64 2 18 2 C18 2.66 18 3.32 18 4 C18.928125 4.2165625 18.928125 4.2165625 19.875 4.4375 C22 5 22 5 24 6 C24 6.66 24 7.32 24 8 C24.99 8 25.98 8 27 8 C27 8.66 27 9.32 27 10 C27.928125 10.4640625 27.928125 10.4640625 28.875 10.9375 C30.25 11.625 31.625 12.3125 33 13 C33 13.66 33 14.32 33 15 C33.763125 15.28875 34.52625 15.5775 35.3125 15.875 C38 17 38 17 41 19 C41 19.66 41 20.32 41 21 C43.81288705 20.85980308 46.62516885 20.71312045 49.4375 20.5625 C50.64116211 20.50352539 50.64116211 20.50352539 51.86914062 20.44335938 C55.75239561 20.5945704 55.75239561 20.5945704 59 19 C60.75558658 18.85443582 62.51656108 18.77276438 64.27734375 18.71875 C65.88319336 18.66267578 65.88319336 18.66267578 67.52148438 18.60546875 C69.21241211 18.55326172 69.21241211 18.55326172 70.9375 18.5 C73.15508247 18.43129693 75.37254543 18.35858211 77.58984375 18.28125 C79.07278931 18.23581055 79.07278931 18.23581055 80.58569336 18.18945312 C83.01052587 18.15135019 83.01052587 18.15135019 85 17 C87.31082534 16.90264181 89.62462958 16.87022627 91.9375 16.875 C93.18402344 16.87242188 94.43054688 16.86984375 95.71484375 16.8671875 C99 17 99 17 102 18 C103.47965926 18.14573058 104.96403843 18.24663268 106.44921875 18.31640625 C107.72055664 18.37924805 107.72055664 18.37924805 109.01757812 18.44335938 C109.89865234 18.48267578 110.77972656 18.52199219 111.6875 18.5625 C113.02651367 18.62727539 113.02651367 18.62727539 114.39257812 18.69335938 C116.59490108 18.79935353 118.79733473 18.90142051 121 19 C121 19.66 121 20.32 121 21 C124.63 21 128.26 21 132 21 C132 21.66 132 22.32 132 23 C134.91517292 21.92598892 136.77810176 21.22189824 139 19 C139.99 19 140.98 19 142 19 C142 18.34 142 17.68 142 17 C143.92808522 15.4197956 145.85212827 13.94887609 147.875 12.5 C152.11256229 9.46302235 152.11256229 9.46302235 156 6 C156.99 6 157.98 6 159 6 C159 5.34 159 4.68 159 4 C159.99 4 160.98 4 162 4 C162 3.34 162 2.68 162 2 C167.12919186 -0.10428384 171.5610835 -0.21755666 177 0 C177 0.66 177 1.32 177 2 C177.721875 2.061875 178.44375 2.12375 179.1875 2.1875 C182.90666917 3.26192665 184.54777495 5.05732994 187 8 C187 8.99 187 9.98 187 11 C187.66 11 188.32 11 189 11 C189 13.97 189 16.94 189 20 C189.66 20 190.32 20 191 20 C191.02505615 20.72179443 191.0501123 21.44358887 191.07592773 22.18725586 C191.19151302 25.437535 191.31440774 28.68749688 191.4375 31.9375 C191.47681641 33.07380859 191.51613281 34.21011719 191.55664062 35.38085938 C191.61948242 37.00024414 191.61948242 37.00024414 191.68359375 38.65234375 C191.73858032 40.15269165 191.73858032 40.15269165 191.79467773 41.68334961 C191.74671841 43.96069188 191.74671841 43.96069188 193 45 C193.14510891 46.60947472 193.2271111 48.22474795 193.28125 49.83984375 C193.33732422 51.3103418 193.33732422 51.3103418 193.39453125 52.81054688 C193.42933594 53.84244141 193.46414062 54.87433594 193.5 55.9375 C193.56873045 57.96759397 193.64145021 59.99755802 193.71875 62.02734375 C193.74904297 62.93218506 193.77933594 63.83702637 193.81054688 64.76928711 C193.8646717 67.03760898 193.8646717 67.03760898 195 69 C195.31583446 72.37328752 195.51133762 75.74734365 195.71875 79.12890625 C195.68299798 81.89459821 195.68299798 81.89459821 197 83 C197.33333333 85.33333333 197.66666667 87.66666667 198 90 C198.33 90.33 198.66 90.66 199 91 C201.66446655 104.65539105 202.07074197 118.62803022 202.125 132.5 C202.13200928 133.71840576 202.13200928 133.71840576 202.13916016 134.96142578 C202.11334978 144.64825881 201.41080977 154.79551652 197.4375 163.75 C196.18825596 166.57437783 195.4596396 168.96637862 195 172 C194.34 172 193.68 172 193 172 C193 173.32 193 174.64 193 176 C192.34 176 191.68 176 191 176 C190.855625 176.763125 190.71125 177.52625 190.5625 178.3125 C190 181 190 181 189 184 C188.34 184 187.68 184 187 184 C186.731875 184.721875 186.46375 185.44375 186.1875 186.1875 C185.00098638 188.99766383 183.72514361 191.48416557 182 194 C181.34 194 180.68 194 180 194 C180 194.99 180 195.98 180 197 C179.34 197 178.68 197 178 197 C177.71125 197.598125 177.4225 198.19625 177.125 198.8125 C176 201 176 201 174 204 C173.34 204 172.68 204 172 204 C171.67 204.99 171.34 205.98 171 207 C170.34 207 169.68 207 169 207 C169 207.66 169 208.32 169 209 C168.34 209 167.68 209 167 209 C167 209.66 167 210.32 167 211 C166.34 211 165.68 211 165 211 C165 211.66 165 212.32 165 213 C164.34 213 163.68 213 163 213 C163 213.66 163 214.32 163 215 C157.52380952 220 157.52380952 220 155 220 C155 220.66 155 221.32 155 222 C154.01 222 153.02 222 152 222 C152 222.66 152 223.32 152 224 C151.01 224 150.02 224 149 224 C149 224.66 149 225.32 149 226 C148.01 226 147.02 226 146 226 C146 226.66 146 227.32 146 228 C145.01 228 144.02 228 143 228 C143 228.66 143 229.32 143 230 C141.68 230 140.36 230 139 230 C139 230.66 139 231.32 139 232 C133.375 235 133.375 235 130 235 C130 235.66 130 236.32 130 237 C126.5980513 239.09350689 123.94727588 239.17942163 120 239 C120 239.66 120 240.32 120 241 C117.69 241 115.38 241 113 241 C113 241.66 113 242.32 113 243 C112.36191406 243.06058594 111.72382813 243.12117187 111.06640625 243.18359375 C110.24011719 243.26738281 109.41382813 243.35117188 108.5625 243.4375 C107.32693359 243.55931641 107.32693359 243.55931641 106.06640625 243.68359375 C104.01337975 243.78930815 104.01337975 243.78930815 103 245 C101.01242972 245.09983058 99.0213248 245.13080753 97.03125 245.1328125 C95.82082031 245.13410156 94.61039062 245.13539063 93.36328125 245.13671875 C92.08839844 245.13285156 90.81351562 245.12898437 89.5 245.125 C87.58767578 245.13080078 87.58767578 245.13080078 85.63671875 245.13671875 C83.82107422 245.13478516 83.82107422 245.13478516 81.96875 245.1328125 C80.84919922 245.13168457 79.72964844 245.13055664 78.57617188 245.12939453 C76 245 76 245 75 244 C73.48530552 243.76807135 71.96245438 243.58784762 70.4375 243.4375 C69.61121094 243.35371094 68.78492187 243.26992187 67.93359375 243.18359375 C67.29550781 243.12300781 66.65742187 243.06242188 66 243 C66 242.34 66 241.68 66 241 C63.69 241 61.38 241 59 241 C59 240.34 59 239.68 59 239 C57.02 239 55.04 239 53 239 C53 238.34 53 237.68 53 237 C51.35 237 49.7 237 48 237 C48 236.34 48 235.68 48 235 C47.319375 234.731875 46.63875 234.46375 45.9375 234.1875 C42.60289191 232.83946694 39.30256763 231.42463702 36 230 C36 229.34 36 228.68 36 228 C35.195625 227.8453125 35.195625 227.8453125 34.375 227.6875 C31.37497956 226.81907303 28.7620465 225.44379704 26 224 C26 223.34 26 222.68 26 222 C25.4225 221.731875 24.845 221.46375 24.25 221.1875 C21.94449957 219.97070811 19.97943808 218.69666121 18 217 C18 216.34 18 215.68 18 215 C17.34 215 16.68 215 16 215 C16 214.34 16 213.68 16 213 C15.401875 212.71125 14.80375 212.4225 14.1875 212.125 C12 211 12 211 9 209 C9 208.34 9 207.68 9 207 C8.34 207 7.68 207 7 207 C7 206.34 7 205.68 7 205 C6.34 205 5.68 205 5 205 C5 204.01 5 203.02 5 202 C4.34 202 3.68 202 3 202 C3 201.34 3 200.68 3 200 C2.34 200 1.68 200 1 200 C-0.7265625 197.8828125 -0.7265625 197.8828125 -2.625 195.125 C-3.25664063 194.22007812 -3.88828125 193.31515625 -4.5390625 192.3828125 C-6 190 -6 190 -6 188 C-6.66 188 -7.32 188 -8 188 C-8 187.01 -8 186.02 -8 185 C-8.66 185 -9.32 185 -10 185 C-10 183.68 -10 182.36 -10 181 C-10.66 181 -11.32 181 -12 181 C-12 179.68 -12 178.36 -12 177 C-12.66 177 -13.32 177 -14 177 C-14 175.35 -14 173.7 -14 172 C-14.66 172 -15.32 172 -16 172 C-16 170.35 -16 168.7 -16 167 C-16.66 167 -17.32 167 -18 167 C-18.65353514 164.52264586 -19.29789601 162.04345526 -19.9375 159.5625 C-20.11990234 158.87478516 -20.30230469 158.18707031 -20.49023438 157.47851562 C-22.6138043 149.17728773 -23.17416523 141.04627289 -23.125 132.5 C-23.12161621 131.63487793 -23.11823242 130.76975586 -23.11474609 129.87841797 C-22.77547711 86.77547711 -22.77547711 86.77547711 -17 81 C-16.7905639 79.02490127 -16.63196178 77.04428318 -16.5 75.0625 C-16.11004127 69.22008253 -16.11004127 69.22008253 -15 67 C-14.85910218 65.27273078 -14.77417312 63.54071368 -14.71875 61.80859375 C-14.68136719 60.78185547 -14.64398438 59.75511719 -14.60546875 58.69726562 C-14.53503 56.52018637 -14.46471795 54.34310302 -14.39453125 52.16601562 C-14.35714844 51.14056641 -14.31976563 50.11511719 -14.28125 49.05859375 C-14.25095703 48.11298584 -14.22066406 47.16737793 -14.18945312 46.19311523 C-14 44 -14 44 -13 43 C-12.85469013 41.30571693 -12.77283477 39.60589258 -12.71875 37.90625 C-12.68136719 36.87628906 -12.64398438 35.84632812 -12.60546875 34.78515625 C-12.57066406 33.70105469 -12.53585938 32.61695313 -12.5 31.5 C-12.43143859 29.36443906 -12.35874988 27.22900524 -12.28125 25.09375 C-12.25095703 24.14177734 -12.22066406 23.18980469 -12.18945312 22.20898438 C-12 20 -12 20 -11 19 C-10.76807135 17.48530552 -10.58784762 15.96245438 -10.4375 14.4375 C-10.35371094 13.61121094 -10.26992188 12.78492188 -10.18359375 11.93359375 C-10.12300781 11.29550781 -10.06242187 10.65742188 -10 10 C-9.34 10 -8.68 10 -8 10 C-7.690625 9.38125 -7.38125 8.7625 -7.0625 8.125 C-6.375 6.75 -5.6875 5.375 -5 4 C-4.34 4 -3.68 4 -3 4 C-3 3.34 -3 2.68 -3 2 C-2.01 2 -1.02 2 0 2 C0 1.34 0 0.68 0 0 Z M-1.578125 11.75390625 C-6.24248206 19.12205271 -5.17687954 30.43579975 -5.4375 38.875 C-6.01964476 57.36225426 -8.57714438 75.63070713 -12.59765625 93.68359375 C-15.43855137 107.17258467 -15.07742133 121.39886327 -15.1875 135.125 C-15.20055176 136.04764648 -15.21360352 136.97029297 -15.22705078 137.92089844 C-15.23834539 146.88236303 -14.25039022 155.03051833 -10 163 C-9.63451555 164.32488113 -9.30295207 165.65943708 -9 167 C-8.15910353 170.65089217 -6.90435683 173.74672375 -5 177 C-4.34 177.33 -3.68 177.66 -3 178 C-2.649375 179.11375 -2.29875 180.2275 -1.9375 181.375 C2.26503949 193.06721384 17.8707894 209.29089136 29.09765625 215.08203125 C29.74605469 215.32308594 30.39445312 215.56414062 31.0625 215.8125 C35.03214548 217.44395164 38.41569583 219.51678739 42 221.875 C52.94739113 228.75072987 65.44405416 232.24204658 78 235 C78 234.34 78 233.68 78 233 C77.195625 232.360625 76.39125 231.72125 75.5625 231.0625 C73 229 73 229 72 226 C71.34 226 70.68 226 70 226 C69.5978125 224.2984375 69.5978125 224.2984375 69.1875 222.5625 C68.795625 221.386875 68.40375 220.21125 68 219 C67.01 218.67 66.02 218.34 65 218 C64.67 217.01 64.34 216.02 64 215 C60.48809191 213.77030122 60.48809191 213.77030122 57 213 C57 212.34 57 211.68 57 211 C56.21625 210.401875 55.4325 209.80375 54.625 209.1875 C51.76492134 206.80410112 51.27298138 205.39461702 50 202 C48.10415891 199.68622853 48.10415891 199.68622853 46 198 C45.34 198 44.68 198 44 198 C44 197.01 44 196.02 44 195 C43.34 195 42.68 195 42 195 C41.34 192.03 40.68 189.06 40 186 C39.34 186 38.68 186 38 186 C36.66666667 182 35.33333333 178 34 174 C40.14777014 175.92117817 42.91929222 178.96238339 47.01953125 183.83984375 C50.97564895 188.15489915 55.259469 189.98696512 61 191 C61.33 191.66 61.66 192.32 62 193 C64.37570543 193.0816082 66.74855841 193.14077222 69.125 193.1875 C69.79015625 193.21263672 70.4553125 193.23777344 71.140625 193.26367188 C75.95233293 193.33443229 78.80519607 192.20269894 83 190 C88.37951879 189.27706072 93.38834646 189.28370954 98.375 191.5 C104.84848749 194.17868448 112.26219846 194.2609451 118.91796875 192.015625 C121.38959261 190.804118 123.68572391 189.48774891 126 188 C126.64195312 187.61972656 127.28390625 187.23945313 127.9453125 186.84765625 C129.78748823 185.75075782 129.78748823 185.75075782 132 184 C132 183.34 132 182.68 132 182 C132.66 182 133.32 182 134 182 C134 181.34 134 180.68 134 180 C134.639375 179.896875 135.27875 179.79375 135.9375 179.6875 C136.618125 179.460625 137.29875 179.23375 138 179 C138.33 178.01 138.66 177.02 139 176 C140.65 175.67 142.3 175.34 144 175 C143.01 178.63 142.02 182.26 141 186 C140.34 186 139.68 186 139 186 C139 187.32 139 188.64 139 190 C138.01 190.33 137.02 190.66 136 191 C134.85701703 192.75830567 134.85701703 192.75830567 133.875 194.9375 C131.24672806 199.99186912 127.74761217 203.77162207 123.79296875 207.8359375 C121.68100284 209.91663372 121.68100284 209.91663372 122 213 C121.34 213 120.68 213 120 213 C120 213.66 120 214.32 120 215 C118.68 215 117.36 215 116 215 C116 215.66 116 216.32 116 217 C115.26265625 217.1959375 114.5253125 217.391875 113.765625 217.59375 C110.13223337 219.44123727 108.6868373 222.06583848 106.75 225.5 C106.2240625 226.39138672 106.2240625 226.39138672 105.6875 227.30078125 C104.39445943 229.50392345 103.14260535 231.7147893 102 234 C110.62923837 232.70901158 119.92027261 231.13222807 127.4453125 226.4921875 C131.33176499 224.22211892 135.5216251 223.32652407 139.84375 222.16015625 C144.18936786 220.56281899 146.95195603 218.04804397 150.1875 214.8125 C152.61670327 212.38329673 155.10606505 210.13778908 157.6875 207.875 C162.38369292 203.68422695 166.60181036 199.18883619 170.7734375 194.48046875 C172.20804189 192.88226912 173.69054092 191.32520826 175.2265625 189.82421875 C177.3140713 187.67693547 177.93892498 185.78532192 179 183 C179.928125 181.6696875 179.928125 181.6696875 180.875 180.3125 C183.07915373 176.87661331 184.47992123 173.58068375 185.921875 169.78125 C187.08920394 166.7698797 188.38836116 163.8316608 189.6875 160.875 C191.68828981 156.13306697 192.61444841 152.10855856 193 147 C193.33 146.67 193.66 146.34 194 146 C194.25299591 142.04816132 194.18522734 138.08397741 194.1875 134.125 C194.19974609 133.00996094 194.21199219 131.89492187 194.22460938 130.74609375 C194.22654297 129.67746094 194.22847656 128.60882813 194.23046875 127.5078125 C194.23457764 126.52441895 194.23868652 125.54102539 194.24291992 124.52783203 C194.17729178 121.75399258 194.17729178 121.75399258 192 119 C192.38745117 117.07299805 192.38745117 117.07299805 193 115 C192.98995676 111.92193432 192.62898142 108.8729765 192.3125 105.8125 C192.22363525 104.93424561 192.13477051 104.05599121 192.04321289 103.15112305 C191.12070785 89.22661374 191.12070785 89.22661374 186 77 C185.8539378 75.13356603 185.77262697 73.26199007 185.71875 71.390625 C185.66267578 69.66972656 185.66267578 69.66972656 185.60546875 67.9140625 C185.57066406 66.70492187 185.53585938 65.49578125 185.5 64.25 C185.43089907 61.880094 185.35811839 59.51029178 185.28125 57.140625 C185.25095703 56.08391602 185.22066406 55.02720703 185.18945312 53.93847656 C185.01262527 51.1958218 184.55230131 48.68620505 184 46 C183.8823728 44.37588441 183.80145416 42.74876902 183.75390625 41.12109375 C183.70689575 39.74691284 183.70689575 39.74691284 183.65893555 38.3449707 C183.61119995 36.90577271 183.61119995 36.90577271 183.5625 35.4375 C183.95442303 21.93467232 183.95442303 21.93467232 179.22265625 10.2265625 C175.28171322 8.05177144 171.36989698 8.39070402 167 9 C162.94672711 10.45100357 159.56802113 12.62131925 156 15 C155.731875 15.639375 155.46375 16.27875 155.1875 16.9375 C153.46577431 19.92786566 151.09374542 20.48125225 148 22 C146.52836762 23.21321265 145.0709715 24.44381466 143.625 25.6875 C140.5177955 28.18906294 138.53046813 29.47833082 134.5 29.5 C131 29 131 29 130 28 C115.79632995 25.85693525 101.39263312 25.76635254 87.05871582 25.70144653 C85.08285684 25.69224947 83.10701356 25.67825868 81.13122559 25.65914917 C70.19338125 25.56581456 59.90823421 25.9540011 49.21264648 28.35473633 C42.31796685 29.73954051 42.31796685 29.73954051 39.05078125 27.90625 C38.47714844 27.4421875 37.90351562 26.978125 37.3125 26.5 C34.95191715 24.44715404 34.95191715 24.44715404 32 24 C32 23.34 32 22.68 32 22 C30.55226257 20.41634563 30.55226257 20.41634563 28.6875 18.875 C27.76517578 18.06675781 27.76517578 18.06675781 26.82421875 17.2421875 C24.95454952 15.71857878 24.95454952 15.71857878 22 16 C22 15.01 22 14.02 22 13 C21.01 13 20.02 13 19 13 C19 12.34 19 11.68 19 11 C8.14546409 6.8446903 8.14546409 6.8446903 -1.578125 11.75390625 Z " fill="#D1904E" transform="translate(39,6)"/>
<path d="M0 0 C3.70967856 0.27143989 5.54132801 0.57392399 8.30859375 3.14453125 C9.36240234 4.46517578 9.36240234 4.46517578 10.4375 5.8125 C15.63382409 11.92428387 20.22988873 14.72582109 28 17 C28 17.66 28 18.32 28 19 C30.37662822 18.9123127 32.74983127 18.80536886 35.125 18.6875 C35.79015625 18.66494141 36.4553125 18.64238281 37.140625 18.61914062 C41.82662278 18.36646427 44.88014446 17.11862313 49 15 C54.37951879 14.27706072 59.38834646 14.28370954 64.375 16.5 C70.88065145 19.1919937 78.31023832 19.25885987 84.98828125 16.98046875 C88.2980994 15.357432 91.23631627 13.59289628 94.1484375 11.33203125 C96 10 96 10 98 10 C98 9.34 98 8.68 98 8 C98.66 8 99.32 8 100 8 C100 7.34 100 6.68 100 6 C100.598125 5.731875 101.19625 5.46375 101.8125 5.1875 C104.04267613 4.11977597 104.04267613 4.11977597 105.5625 2.375 C107 1 107 1 110 1 C109.25 8.625 109.25 8.625 107 12 C106.34 12 105.68 12 105 12 C105 13.32 105 14.64 105 16 C104.34 16.33 103.68 16.66 103 17 C102.26900519 18.28878202 101.58981061 19.60716043 100.9375 20.9375 C98.27499786 25.9346887 94.79300406 29.76557524 90.890625 33.8359375 C88.80469453 35.94255142 88.80469453 35.94255142 88 39 C87.34 39 86.68 39 86 39 C86 39.66 86 40.32 86 41 C84.68 41 83.36 41 82 41 C82 41.66 82 42.32 82 43 C81.14148438 43.29003906 81.14148438 43.29003906 80.265625 43.5859375 C77.06956839 45.58071766 75.58774503 48.43957528 73.75 51.625 C73.38648438 52.23601562 73.02296875 52.84703125 72.6484375 53.4765625 C71.75640248 54.97893727 70.87694171 56.48876551 70 58 C70.33 58.33 70.66 58.66 71 59 C78.47362394 56.97544481 85.78348608 54.88625426 92.9140625 51.83203125 C94.92722429 51.02902851 96.88755935 50.47314847 99 50 C98.67 50.99 98.34 51.98 98 53 C95.93359375 53.73046875 95.93359375 53.73046875 93.4375 54.1875 C92.61121094 54.34605469 91.78492188 54.50460938 90.93359375 54.66796875 C90.29550781 54.77753906 89.65742188 54.88710937 89 55 C89 55.99 89 56.98 89 58 C86.66840696 58.65272461 84.33502204 59.29725202 82 59.9375 C81.35160156 60.11990234 80.70320313 60.30230469 80.03515625 60.49023438 C72.42669225 62.56184586 65.03903644 63.17402984 57.1875 63.125 C56.00510742 63.11992432 56.00510742 63.11992432 54.79882812 63.11474609 C45.30444354 63.03101793 36.27241026 62.07170988 27 60 C27 59.34 27 58.68 27 58 C25.96875 57.9175 24.9375 57.835 23.875 57.75 C19.52575841 56.9082113 17.59110016 55.55520588 14 53 C11.24858429 51.44750251 8.46941081 49.95456436 5.68359375 48.46484375 C4.35521484 47.73974609 4.35521484 47.73974609 3 47 C2.08347656 46.50628906 1.16695313 46.01257813 0.22265625 45.50390625 C-2 44 -2 44 -3 41 C1.0029447 42.43171015 4.22270251 44.39237629 7.75 46.75 C17.63677781 53.08649295 28.99020044 56.28024541 40.21484375 59.45703125 C42 60 42 60 44 61 C44 60.34 44 59.68 44 59 C43.071875 58.566875 43.071875 58.566875 42.125 58.125 C40 57 40 57 38 55 C38 54.01 38 53.02 38 52 C37.34 52 36.68 52 36 52 C35.566875 50.906875 35.13375 49.81375 34.6875 48.6875 C32.09328708 42.74591558 28.88583367 41.33212277 23 39 C23 38.34 23 37.68 23 37 C22.38125 36.71125 21.7625 36.4225 21.125 36.125 C19 35 19 35 17 33 C16.87625 32.360625 16.7525 31.72125 16.625 31.0625 C15.79423893 28.32098847 14.28410767 27.62097963 12 26 C12 25.34 12 24.68 12 24 C11.34 24 10.68 24 10 24 C10 23.01 10 22.02 10 21 C9.34 21 8.68 21 8 21 C5.70986347 17.5647952 5.82157027 16.014669 6 12 C5.34 12 4.68 12 4 12 C3.32332002 10.75539217 2.65905281 9.50403104 2 8.25 C1.62875 7.55390625 1.2575 6.8578125 0.875 6.140625 C0 4 0 4 0 0 Z " fill="#FD8282" transform="translate(73,180)"/>
<path d="M0 0 C3.70967856 0.27143989 5.54132801 0.57392399 8.30859375 3.14453125 C9.36240234 4.46517578 9.36240234 4.46517578 10.4375 5.8125 C15.63382409 11.92428387 20.22988873 14.72582109 28 17 C28 17.66 28 18.32 28 19 C30.37662822 18.9123127 32.74983127 18.80536886 35.125 18.6875 C35.79015625 18.66494141 36.4553125 18.64238281 37.140625 18.61914062 C41.82662278 18.36646427 44.88014446 17.11862313 49 15 C54.37951879 14.27706072 59.38834646 14.28370954 64.375 16.5 C70.88065145 19.1919937 78.31023832 19.25885987 84.98828125 16.98046875 C88.2980994 15.357432 91.23631627 13.59289628 94.1484375 11.33203125 C96 10 96 10 98 10 C98 9.34 98 8.68 98 8 C98.66 8 99.32 8 100 8 C100 7.34 100 6.68 100 6 C100.598125 5.731875 101.19625 5.46375 101.8125 5.1875 C104.04267613 4.11977597 104.04267613 4.11977597 105.5625 2.375 C107 1 107 1 110 1 C109.25 8.625 109.25 8.625 107 12 C106.34 12 105.68 12 105 12 C105 13.32 105 14.64 105 16 C104.34 16.33 103.68 16.66 103 17 C102.29605388 18.31403276 101.63654342 19.6520257 101 21 C97.8255191 26.9238081 93.14519008 30.79541498 88 35 C86.6696875 36.11955078 86.6696875 36.11955078 85.3125 37.26171875 C83 39 83 39 81 39 C80.67 39.99 80.34 40.98 80 42 C78.35 42.33 76.7 42.66 75 43 C74.67 36.73 74.34 30.46 74 24 C60.92060736 18.76824294 47.14326943 20.61891019 34 25 C34 30.61 34 36.22 34 42 C33.34 42 32.68 42 32 42 C32 41.34 32 40.68 32 40 C31.443125 39.896875 30.88625 39.79375 30.3125 39.6875 C24.86867732 38.06906623 21.49099076 34.62971204 17.6484375 30.64453125 C15.95301964 28.87401768 15.95301964 28.87401768 13.5625 27.1875 C13.046875 26.795625 12.53125 26.40375 12 26 C12 25.34 12 24.68 12 24 C11.34 24 10.68 24 10 24 C10 23.01 10 22.02 10 21 C9.34 21 8.68 21 8 21 C5.70986347 17.5647952 5.82157027 16.014669 6 12 C5.34 12 4.68 12 4 12 C3.32332002 10.75539217 2.65905281 9.50403104 2 8.25 C1.62875 7.55390625 1.2575 6.8578125 0.875 6.140625 C0 4 0 4 0 0 Z " fill="#0B0A09" transform="translate(73,180)"/>
<path d="M0 0 C3.42550493 2.35979229 5.47768026 4.13769533 7 8 C7.67929159 13.05549699 8.37361701 18.64462605 5.7265625 23.18359375 C4.125 24.8125 4.125 24.8125 1 27 C0.34 27 -0.32 27 -1 27 C-1.495 28.485 -1.495 28.485 -2 30 C-3.98 30 -5.96 30 -8 30 C-8 30.66 -8 31.32 -8 32 C-14.92261201 32.39768197 -21.66169045 32.11153378 -28 29 C-28.33 28.01 -28.66 27.02 -29 26 C-29.66 26 -30.32 26 -31 26 C-31.66 24.35 -32.32 22.7 -33 21 C-33.66 21 -34.32 21 -35 21 C-35.63887018 15.75594057 -36.14858049 11.0165917 -33.46484375 6.3046875 C-24.94589025 -3.64229866 -11.66854318 -6.80665019 0 0 Z " fill="#363636" transform="translate(142,156)"/>
<path d="M0 0 C3.42389453 1.86757884 4.52894207 3.54838194 6.046875 7.0859375 C7.36830062 11.62283213 7.68293846 15.85603965 6.75 20.5 C4.46308484 24.5146473 1.56027732 26.95981512 -2.25 29.5 C-4.51171875 29.6953125 -4.51171875 29.6953125 -6.9375 29.625 C-7.74574219 29.60695312 -8.55398437 29.58890625 -9.38671875 29.5703125 C-10.00160156 29.54710937 -10.61648437 29.52390625 -11.25 29.5 C-11.25 28.84 -11.25 28.18 -11.25 27.5 C-11.8275 27.45875 -12.405 27.4175 -13 27.375 C-15.62680403 26.3534651 -17.01229523 25.12271922 -18.46875 22.703125 C-20.34482451 17.41259489 -20.28796055 11.96195094 -19.25 6.5 C-14.38366973 -1.41405774 -8.35258157 -1.28501255 0 0 Z " fill="#080501" transform="translate(94.25,107.5)"/>
<path d="M0 0 C3.91949712 0.40828095 5.94438279 1.8818954 9 4.3125 C11.05951746 7.40177618 11.53018384 8.71057609 12 12.3125 C12.15082031 13.34117188 12.15082031 13.34117188 12.3046875 14.390625 C12.61429055 18.03155689 12.67306541 20.36457018 10.5078125 23.4140625 C6.88212139 27.06984234 4.54672659 29.15520577 -0.6875 29.6875 C-5.51996872 29.64348845 -8.57740273 27.59634332 -12 24.3125 C-15.26772956 19.41090567 -14.66716011 14.03494549 -14 8.3125 C-12.73555791 5.01301163 -11.64315198 3.84073233 -9 1.3125 C-5.91465026 0.32781391 -3.20427764 0.33377892 0 0 Z " fill="#060401" transform="translate(170,106.6875)"/>
<path d="M0 0 C-0.75 7.625 -0.75 7.625 -3 11 C-3.66 11 -4.32 11 -5 11 C-5 12.32 -5 13.64 -5 15 C-5.99 15.495 -5.99 15.495 -7 16 C-7.70394612 17.31403276 -8.36345658 18.6520257 -9 20 C-12.1744809 25.9238081 -16.85480992 29.79541498 -22 34 C-23.3303125 35.11955078 -23.3303125 35.11955078 -24.6875 36.26171875 C-27 38 -27 38 -29 38 C-29.33 38.99 -29.66 39.98 -30 41 C-32.475 41.495 -32.475 41.495 -35 42 C-35.02505615 41.44014404 -35.0501123 40.88028809 -35.07592773 40.3034668 C-35.19203745 37.76458695 -35.3146958 35.22606447 -35.4375 32.6875 C-35.47681641 31.80642578 -35.51613281 30.92535156 -35.55664062 30.01757812 C-35.59853516 29.17001953 -35.64042969 28.32246094 -35.68359375 27.44921875 C-35.73858032 26.27879028 -35.73858032 26.27879028 -35.79467773 25.0847168 C-35.94125263 22.80670899 -35.94125263 22.80670899 -37 20 C-35.783125 20.061875 -34.56625 20.12375 -33.3125 20.1875 C-28.31109294 20.17867918 -25.59251186 18.59251186 -22.0625 15.0625 C-19.59488985 12.59488985 -16.97620774 10.81160471 -14 9 C-13.34 9 -12.68 9 -12 9 C-12 8.34 -12 7.68 -12 7 C-11.34 7 -10.68 7 -10 7 C-10 6.34 -10 5.68 -10 5 C-9.401875 4.731875 -8.80375 4.46375 -8.1875 4.1875 C-5.95732387 3.11977597 -5.95732387 3.11977597 -4.4375 1.375 C-3 0 -3 0 0 0 Z " fill="#090908" transform="translate(183,181)"/>
<path d="M0 0 C3.32691138 3.32691138 2.05779676 12.53520541 2.06811523 17.06860352 C2.05991036 20.71263787 2.03537745 24.3561227 2 28 C-2.45928351 28.88320989 -4.87649098 29.06175451 -9 27 C-9 26.34 -9 25.68 -9 25 C-9.58007812 24.90203125 -10.16015625 24.8040625 -10.7578125 24.703125 C-16.09646432 23.68120485 -19.68885232 22.31626744 -24 19 C-23.91027699 16.30332503 -23.47078213 14.52625863 -21.65332031 12.49462891 C-19.85325942 10.87416242 -18.00944358 9.33397191 -16.125 7.8125 C-15.48691406 7.27947266 -14.84882813 6.74644531 -14.19140625 6.19726562 C-6.23361284 -0.40653997 -6.23361284 -0.40653997 0 0 Z " fill="#FEF2B0" transform="translate(211,24)"/>
<path d="M0 0 C4.6333179 0.52452655 6.06849132 2.05554926 9.3125 5.375 C10.1875 7.6875 10.1875 7.6875 10.3125 9.375 C11.3025 9.375 12.2925 9.375 13.3125 9.375 C13.3125 10.035 13.3125 10.695 13.3125 11.375 C14.17875 11.5296875 14.17875 11.5296875 15.0625 11.6875 C17.63299158 12.47292798 19.24907284 13.68004197 21.3125 15.375 C21.5 18.0625 21.5 18.0625 20.3125 21.375 C16.83106857 23.49926324 13.09677771 24.88036931 9.3125 26.375 C7.6728125 27.2721875 7.6728125 27.2721875 6 28.1875 C2.89222411 29.5607033 0.67563605 29.68784986 -2.6875 29.375 C-4.49029191 27.57220809 -3.81786605 24.83452299 -3.8203125 22.40625 C-3.82160156 21.19582031 -3.82289062 19.98539063 -3.82421875 18.73828125 C-3.82035156 17.46339844 -3.81648438 16.18851563 -3.8125 14.875 C-3.81636719 13.60011719 -3.82023437 12.32523438 -3.82421875 11.01171875 C-3.82292969 9.80128906 -3.82164063 8.59085938 -3.8203125 7.34375 C-3.81918457 6.22419922 -3.81805664 5.10464844 -3.81689453 3.95117188 C-3.63931224 0.41560897 -3.51022359 0.48979864 0 0 Z " fill="#FEF2B0" transform="translate(48.6875,23.625)"/>
<path d="M0 0 C4.0029447 1.43171015 7.22270251 3.39237629 10.75 5.75 C20.63677781 12.08649295 31.99020044 15.28024541 43.21484375 18.45703125 C45 19 45 19 47 20 C47 19.34 47 18.68 47 18 C51.75 18.875 51.75 18.875 54 20 C55.70363822 20.22622081 57.41328701 20.40888473 59.125 20.5625 C60.03507812 20.64628906 60.94515625 20.73007813 61.8828125 20.81640625 C62.58148438 20.87699219 63.28015625 20.93757813 64 21 C64.495 19.515 64.495 19.515 65 18 C66.32 18 67.64 18 69 18 C69 17.34 69 16.68 69 16 C69.99 15.34 70.98 14.68 72 14 C73.44422226 11.59514202 73.44422226 11.59514202 74.6875 8.875 C75.12449219 7.96492187 75.56148438 7.05484375 76.01171875 6.1171875 C76.33785156 5.41851562 76.66398437 4.71984375 77 4 C77.99 4 78.98 4 80 4 C78.6744419 7.62276315 77.05653045 10.63505348 74.875 13.8125 C74.33617187 14.60269531 73.79734375 15.39289063 73.2421875 16.20703125 C72.83226562 16.79871094 72.42234375 17.39039063 72 18 C80.38332299 16.59041472 89.34150531 14.84420539 96.66796875 10.37109375 C99 9 99 9 102 9 C101.67 9.99 101.34 10.98 101 12 C98.93359375 12.73046875 98.93359375 12.73046875 96.4375 13.1875 C95.61121094 13.34605469 94.78492188 13.50460938 93.93359375 13.66796875 C93.29550781 13.77753906 92.65742188 13.88710937 92 14 C92 14.99 92 15.98 92 17 C89.66840696 17.65272461 87.33502204 18.29725202 85 18.9375 C84.35160156 19.11990234 83.70320313 19.30230469 83.03515625 19.49023438 C75.42669225 21.56184586 68.03903644 22.17402984 60.1875 22.125 C59.00510742 22.11992432 59.00510742 22.11992432 57.79882812 22.11474609 C48.30444354 22.03101793 39.27241026 21.07170988 30 19 C30 18.34 30 17.68 30 17 C28.96875 16.9175 27.9375 16.835 26.875 16.75 C22.52575841 15.9082113 20.59110016 14.55520588 17 12 C14.24858429 10.44750251 11.46941081 8.95456436 8.68359375 7.46484375 C7.35521484 6.73974609 7.35521484 6.73974609 6 6 C5.08347656 5.50628906 4.16695313 5.01257813 3.22265625 4.50390625 C1 3 1 3 0 0 Z " fill="#CEAF8C" transform="translate(70,221)"/>
<path d="M0 0 C2.31 0.33 4.62 0.66 7 1 C7.33 1.99 7.66 2.98 8 4 C10.37662822 3.9123127 12.74983127 3.80536886 15.125 3.6875 C16.12273437 3.65366211 16.12273437 3.65366211 17.140625 3.61914062 C21.82662278 3.36646427 24.88014446 2.11862313 29 0 C34.37951879 -0.72293928 39.38834646 -0.71629046 44.375 1.5 C51.32220025 4.37470355 59.74146227 3.69822392 67 2 C64.63286061 4.74089824 62.49398354 6.02493482 59 7 C55.6875 6.625 55.6875 6.625 53 6 C53 6.66 53 7.32 53 8 C52.12601563 7.7834375 52.12601563 7.7834375 51.234375 7.5625 C40.19899719 5.06392389 30.03377535 5.80889567 19 8 C19 7.34 19 6.68 19 6 C18.12988281 6.03480469 18.12988281 6.03480469 17.2421875 6.0703125 C12.38588834 6.18250423 8.57067605 5.87514915 4 4 C4 3.34 4 2.68 4 2 C2.68 1.67 1.36 1.34 0 1 C0 0.67 0 0.34 0 0 Z " fill="#31211F" transform="translate(93,195)"/>
<path d="M0 0 C4.20558778 1.79458048 8.56739443 4.1494373 10.66308594 8.34082031 C8.68308594 7.68082031 6.70308594 7.02082031 4.66308594 6.34082031 C4.98535156 6.84871094 5.30761719 7.35660156 5.63964844 7.87988281 C7.03075393 11.22490746 7.00201162 14.10117413 7.03808594 17.71582031 C7.06644531 19.00230469 7.09480469 20.28878906 7.12402344 21.61425781 C6.59401775 25.89921909 5.38224864 28.02966277 2.66308594 31.34082031 C0.41308594 32.21582031 0.41308594 32.21582031 -1.33691406 32.34082031 C-1.33691406 33.00082031 -1.33691406 33.66082031 -1.33691406 34.34082031 C-7.12048471 36.35249706 -12.23910405 36.56166655 -18.33691406 36.34082031 C-18.33691406 36.01082031 -18.33691406 35.68082031 -18.33691406 35.34082031 C-15.36691406 35.34082031 -12.39691406 35.34082031 -9.33691406 35.34082031 C-9.33691406 34.68082031 -9.33691406 34.02082031 -9.33691406 33.34082031 C-8.45003906 33.27894531 -7.56316406 33.21707031 -6.64941406 33.15332031 C-2.54090285 32.14557228 -1.09881274 30.47594854 1.66308594 27.34082031 C2.19804687 26.92316406 2.73300781 26.50550781 3.28417969 26.07519531 C5.36586633 23.45686991 5.06068656 21.25797829 5.03808594 17.96582031 C5.04582031 16.84433594 5.05355469 15.72285156 5.06152344 14.56738281 C4.62409262 11.02505093 3.78242797 9.18323197 1.66308594 6.34082031 C-5.65692304 0.73400492 -12.32672814 0.73500097 -21.33691406 1.34082031 C-26.62617015 2.53607925 -30.39892827 5.78702826 -34.33691406 9.34082031 C-34.33691406 8.35082031 -34.33691406 7.36082031 -34.33691406 6.34082031 C-35.65691406 6.67082031 -36.97691406 7.00082031 -38.33691406 7.34082031 C-38.33691406 6.68082031 -38.33691406 6.02082031 -38.33691406 5.34082031 C-36.87887237 4.52779707 -35.42047091 3.715419 -33.96191406 2.90332031 C-32.74375 2.22462891 -32.74375 2.22462891 -31.50097656 1.53222656 C-23.30698699 -2.97890488 -8.90204197 -2.51102312 0 0 Z " fill="#B8AD96" transform="translate(143.3369140625,152.6591796875)"/>
<path d="M0 0 C0.02505615 0.90355225 0.0501123 1.80710449 0.07592773 2.73803711 C0.17087317 6.0796428 0.27011621 9.42106252 0.37231445 12.76245117 C0.4157163 14.2106424 0.45738744 15.65888654 0.49731445 17.10717773 C0.55489062 19.18489559 0.61862028 21.26234573 0.68359375 23.33984375 C0.72025146 24.59144287 0.75690918 25.84304199 0.79467773 27.13256836 C0.67803906 29.89630504 0.67803906 29.89630504 2 31 C2.12171886 32.59195462 2.17973021 34.18886019 2.2109375 35.78515625 C2.23712158 36.78224609 2.26330566 37.77933594 2.2902832 38.80664062 C2.31823975 39.88107422 2.34619629 40.95550781 2.375 42.0625 C2.68945565 51.24702913 3.59596833 59.75363586 5.53222656 68.74121094 C8.28817008 82.04913862 10.86416597 95.3653813 10 109 C9.01 108.34 8.02 107.68 7 107 C7.17917969 106.36578125 7.35835937 105.7315625 7.54296875 105.078125 C8.16770028 100.87053142 7.75273238 96.96537578 7.3125 92.75 C7.22363525 91.87625732 7.13477051 91.00251465 7.04321289 90.10229492 C6.11428963 76.20140628 6.11428963 76.20140628 1 64 C0.8539378 62.13356603 0.77262697 60.26199007 0.71875 58.390625 C0.68136719 57.24335937 0.64398438 56.09609375 0.60546875 54.9140625 C0.55326172 53.10035156 0.55326172 53.10035156 0.5 51.25 C0.43089907 48.880094 0.35811839 46.51029178 0.28125 44.140625 C0.25095703 43.08391602 0.22066406 42.02720703 0.18945312 40.93847656 C0.01260298 38.19547613 -0.44624322 35.68631523 -1 33 C-1.12851906 31.3526043 -1.22111525 29.70208787 -1.28125 28.05078125 C-1.31863281 27.11943359 -1.35601562 26.18808594 -1.39453125 25.22851562 C-1.42933594 24.26623047 -1.46414062 23.30394531 -1.5 22.3125 C-1.76354927 15.17226712 -2.20174278 8.10197051 -3 1 C-1 0 -1 0 0 0 Z " fill="#E2A14C" transform="translate(223,19)"/>
<path d="M0 0 C2.5625 1.25 2.5625 1.25 5 3 C7.40659867 10.21979602 7.03775334 18.6173691 7.25 26.1875 C7.27578125 27.04730469 7.3015625 27.90710938 7.328125 28.79296875 C7 31 7 31 5.6875 32.7734375 C2.80323273 34.8698725 0.4518088 34.40271103 -3 34 C-4.75363405 33.07535659 -6.50804617 32.14216021 -8.17578125 31.0703125 C-10.11953796 29.92986424 -11.9859751 29.26079331 -14.125 28.5625 C-18.02851994 27.15479788 -20.49126 25.39893807 -23 22 C-22.82703275 18.84080398 -22.32423928 17.36842133 -20.22265625 14.98046875 C-19.50980469 14.38878906 -18.79695312 13.79710937 -18.0625 13.1875 C-17.35222656 12.58292969 -16.64195312 11.97835937 -15.91015625 11.35546875 C-14 10 -14 10 -12 10 C-12 9.34 -12 8.68 -12 8 C-9.8828125 6.30859375 -9.8828125 6.30859375 -7.125 4.4375 C-6.22007812 3.81746094 -5.31515625 3.19742187 -4.3828125 2.55859375 C-2 1 -2 1 0 0 Z M-8.4375 7.125 C-9.38109375 7.94097656 -10.3246875 8.75695312 -11.296875 9.59765625 C-12.18890625 10.39042969 -13.0809375 11.18320312 -14 12 C-15.3939727 13.1896836 -16.78947127 14.3775854 -18.1875 15.5625 C-19.115625 16.366875 -20.04375 17.17125 -21 18 C-20.88658466 20.40877257 -20.88658466 20.40877257 -20 23 C-16.38439614 26.05066576 -12.43711897 26.65237844 -7.890625 27.375 C-7.26671875 27.58125 -6.6428125 27.7875 -6 28 C-5.67 28.99 -5.34 29.98 -5 31 C-3.72125 31.185625 -2.4425 31.37125 -1.125 31.5625 C-0.40570313 31.66691406 0.31359375 31.77132812 1.0546875 31.87890625 C3.08140667 32.1684297 3.08140667 32.1684297 5 31 C5.27442775 17.45500009 5.27442775 17.45500009 4 4 C2.91100682 2.70445872 2.91100682 2.70445872 0.27734375 2.6796875 C-3.85920284 3.08397453 -5.34159467 4.40204117 -8.4375 7.125 Z " fill="#FDCD6A" transform="translate(208,21)"/>
<path d="M0 0 C0.33 0 0.66 0 1 0 C0.88147885 5.17796403 0.75721232 10.35574683 0.62768555 15.53344727 C0.58444931 17.29382608 0.5427665 19.05424378 0.50268555 20.81469727 C0.44470815 23.34924013 0.38109373 25.88358934 0.31640625 28.41796875 C0.29133751 29.59325386 0.29133751 29.59325386 0.26576233 30.7922821 C0.16197324 34.6450557 -0.1570622 38.24202394 -1 42 C-1.18672039 45.34367816 -1.34217027 48.68176297 -1.4296875 52.02929688 C-1.64733732 56.81305864 -2.88539764 59.78134193 -5 64 C-5.78733674 67.32500049 -6.24381811 70.67650664 -6.6875 74.0625 C-6.81632568 74.98973877 -6.94515137 75.91697754 -7.07788086 76.87231445 C-7.90825373 83.21680457 -8.23376577 89.30170737 -7.91015625 95.69921875 C-8 98 -8 98 -10 100 C-10.35613715 87.24501383 -9.69702239 75.46911035 -7 63 C-3.48450012 46.42200546 -1.83898145 30.34805924 -1.34130859 13.41455078 C-1.3098877 12.39474121 -1.2784668 11.37493164 -1.24609375 10.32421875 C-1.21020142 8.9642981 -1.21020142 8.9642981 -1.17358398 7.5769043 C-0.99841535 4.97647539 -0.56820265 2.54102516 0 0 Z " fill="#E3A049" transform="translate(35,28)"/>
<path d="M0 0 C2.64 1.32 5.28 2.64 8 4 C8 4.66 8 5.32 8 6 C7.46375 5.67 6.9275 5.34 6.375 5 C3.50785479 3.611943 3.50785479 3.611943 -2 4 C-2 12.91 -2 21.82 -2 31 C3.61791562 31.14934632 3.61791562 31.14934632 8.0625 29.125 C8.73796875 28.76277344 9.4134375 28.40054688 10.109375 28.02734375 C11.04523437 27.51880859 11.04523437 27.51880859 12 27 C16.58333333 24.86111111 16.58333333 24.86111111 20 26 C15.25583142 28.98204882 11.67810568 31 6 31 C5.505 32.485 5.505 32.485 5 34 C-1.47630923 34.36658354 -1.47630923 34.36658354 -3.875 32.6875 C-7.04536177 27.93195734 -5.94167081 22.49757723 -5.6875 17.0625 C-5.63432617 15.55913086 -5.63432617 15.55913086 -5.58007812 14.02539062 C-5.53689453 13.05923828 -5.49371094 12.09308594 -5.44921875 11.09765625 C-5.41143311 10.21601807 -5.37364746 9.33437988 -5.3347168 8.42602539 C-4.97728779 5.83538203 -4.40939692 4.19585762 -3 2 C-2.01 1.34 -1.02 0.68 0 0 Z " fill="#FDCC69" transform="translate(48,21)"/>
<path d="M0 0 C0.99 0 1.98 0 3 0 C6.57913267 5.368699 5.89486928 11.81783967 5 18 C3.09733445 22.15868327 0.95295588 24.68504266 -3 27 C-7.84374569 28.15718729 -12.35111898 28.1714175 -16.9609375 26.1328125 C-20.9902479 23.16707642 -23.43516032 18.65915544 -25 14 C-25.4375 10.1875 -25.4375 10.1875 -25 7 C-23.47265625 5.30078125 -23.47265625 5.30078125 -22 4 C-21.97421875 4.86882812 -21.9484375 5.73765625 -21.921875 6.6328125 C-21.60822307 15.64654849 -21.60822307 15.64654849 -17 23 C-16.01 23.33 -15.02 23.66 -14 24 C-14 24.66 -14 25.32 -14 26 C-7.27298033 25.83556174 -3.74114735 24.85678509 1 20 C3.97093503 15.54359745 3.51397346 11.2291213 3 6 C1.68796267 2.4436007 1.68796267 2.4436007 0 0 Z " fill="#CD8C2B" transform="translate(97,111)"/>
<path d="M0 0 C2 1.3125 2 1.3125 4 4 C4.98425513 10.54788677 4.37025343 16.30543385 1 22 C-1.39293838 25.01047086 -3.04123094 25.88442236 -6.8515625 26.34375 C-16.0058389 26.61102814 -16.0058389 26.61102814 -20 23 C-19.505 21.515 -19.505 21.515 -19 20 C-18.505 20.495 -18.01 20.99 -17.5 21.5 C-13.96109769 23.62334139 -10.94065389 23.97098846 -7 23 C-3.64800284 21.17008318 -1.20750493 19.12490958 1 16 C1.75566144 12.86152291 1.49529484 10.16654793 1 7 C0.87431641 5.94619141 0.87431641 5.94619141 0.74609375 4.87109375 C0.53870421 3.24160452 0.27563287 1.61934311 0 0 Z " fill="#A97322" transform="translate(180,112)"/>
<path d="M0 0 C2.9375 2.1875 2.9375 2.1875 5 4 C4.67 4.99 4.34 5.98 4 7 C3.63132813 6.4946875 3.26265625 5.989375 2.8828125 5.46875 C-1.11524236 0.99092855 -4.68095233 -0.51327776 -10.54760742 -0.89892578 C-17.32320685 -1.00828779 -22.25531186 -0.79225388 -27.5625 3.875 C-29.40337564 5.87735596 -30.78718265 7.5743653 -32 10 C-32.66 10 -33.32 10 -34 10 C-34 13.3 -34 16.6 -34 20 C-33.34 20 -32.68 20 -32 20 C-32.33 20.99 -32.66 21.98 -33 23 C-33 22.34 -33 21.68 -33 21 C-33.66 21 -34.32 21 -35 21 C-35.63887018 15.75594057 -36.14858049 11.0165917 -33.46484375 6.3046875 C-24.94589025 -3.64229866 -11.66854318 -6.80665019 0 0 Z " fill="#6C6C6B" transform="translate(142,156)"/>
<path d="M0 0 C4.09913166 1.36637722 5.48599974 4.19474643 7.8125 7.625 C8.71003148 8.91169932 9.60975158 10.19687492 10.51171875 11.48046875 C11.15826416 12.40158447 11.15826416 12.40158447 11.81787109 13.34130859 C17.52497726 21.34917296 24.67330556 27.79581598 33 33 C32.505 33.99 32.505 33.99 32 35 C27.35021035 32.94544178 24.51807451 30.62530175 21 27 C19.97441472 26.00335129 18.94563209 25.00998467 17.9140625 24.01953125 C1.54959118 8.13535372 1.54959118 8.13535372 0 0 Z " fill="#DCC4A2" transform="translate(37,186)"/>
<path d="M0 0 C0.99 0 1.98 0 3 0 C1.74610189 3.76169432 -0.15723243 5.24958222 -3 8 C-4.30164223 9.42983427 -5.60309118 10.85989865 -6.89331055 12.30004883 C-11.32023696 17.23523132 -15.83311231 21.88323388 -20.890625 26.1875 C-22.29420921 27.39354272 -23.66028312 28.64468588 -24.984375 29.9375 C-29.87618026 34.63363305 -34.38792495 36.57731992 -41 38 C-38.61119576 35.3754585 -36.03282898 33.69998721 -33 31.875 C-20.42761108 23.9861166 -10.01401296 14.44485505 -1.76171875 2.125 C-1.18035156 1.42375 -0.59898437 0.7225 0 0 Z " fill="#DCCAAC" transform="translate(213,192)"/>
<path d="M0 0 C2.31 0 4.62 0 7 0 C7.33 0.66 7.66 1.32 8 2 C9.11375 2.309375 10.2275 2.61875 11.375 2.9375 C14.69993306 3.91204934 15.95212691 4.3498113 18 7 C16.63875 6.505 16.63875 6.505 15.25 6 C9.15803658 4.27539121 1.81866107 3.52374061 -3.87890625 6.5078125 C-7.63894278 8.30547702 -10.80900494 8.34115679 -14.875 8.1875 C-15.56335938 8.17396484 -16.25171875 8.16042969 -16.9609375 8.14648438 C-18.64097001 8.1114837 -20.3205935 8.05768954 -22 8 C-22 7.67 -22 7.34 -22 7 C-17.38 7 -12.76 7 -8 7 C-8 6.34 -8 5.68 -8 5 C-6.68 5 -5.36 5 -4 5 C-4 4.34 -4 3.68 -4 3 C-3.01 2.67 -2.02 2.34 -1 2 C-0.67 1.34 -0.34 0.68 0 0 Z " fill="#C2BDAC" transform="translate(123,191)"/>
<path d="M0 0 C5.53846154 0.61538462 5.53846154 0.61538462 7.875 2.5625 C8.431875 3.2740625 8.431875 3.2740625 9 4 C8.67 4.66 8.34 5.32 8 6 C6.35 5.01 4.7 4.02 3 3 C3 4.32 3 5.64 3 7 C3.66 7 4.32 7 5 7 C5 8.32 5 9.64 5 11 C5.66 11 6.32 11 7 11 C7.47985967 12.27057182 7.9588593 13.54146848 8.4375 14.8125 C8.83775391 15.87404297 8.83775391 15.87404297 9.24609375 16.95703125 C9.86225186 18.62672396 10.43719235 20.31157704 11 22 C11.66 22 12.32 22 13 22 C13.66 23.98 14.32 25.96 15 28 C14.01 27.34 13.02 26.68 12 26 C12 25.34 12 24.68 12 24 C11.34 24 10.68 24 10 24 C10 23.01 10 22.02 10 21 C9.34 21 8.68 21 8 21 C5.70986347 17.5647952 5.82157027 16.014669 6 12 C5.34 12 4.68 12 4 12 C3.32332002 10.75539217 2.65905281 9.50403104 2 8.25 C1.62875 7.55390625 1.2575 6.8578125 0.875 6.140625 C0 4 0 4 0 0 Z " fill="#6F6C62" transform="translate(73,180)"/>
<path d="M0 0 C0.33 0 0.66 0 1 0 C1 6.27 1 12.54 1 19 C5.77988434 17.15865969 5.77988434 17.15865969 9 14 C13.22044911 10.19453228 17.52103592 6.49919069 22 3 C20.43909056 6.83132316 17.8924866 9.1075134 15 12 C14.67 12.99 14.34 13.98 14 15 C13.34 15 12.68 15 12 15 C12 15.66 12 16.32 12 17 C10.68 17 9.36 17 8 17 C8 17.66 8 18.32 8 19 C4.91190305 20.76462683 3.76687864 21 0 21 C0 14.07 0 7.14 0 0 Z " fill="#977971" transform="translate(147,204)"/>
<path d="M0 0 C2.25 0 2.25 0 5 1 C8.95653582 5.72761788 9.73553925 11.37896954 9.52734375 17.375 C8.40857513 22.94398158 4.53600725 25.97599517 0 29 C-2.26171875 29.1953125 -2.26171875 29.1953125 -4.6875 29.125 C-5.89986328 29.09792969 -5.89986328 29.09792969 -7.13671875 29.0703125 C-7.75160156 29.04710937 -8.36648437 29.02390625 -9 29 C-9 28.67 -9 28.34 -9 28 C-7.80375 27.938125 -6.6075 27.87625 -5.375 27.8125 C-1.77436151 27.30725943 1.11709324 26.47660737 3.8671875 23.921875 C6.45604839 19.52973859 6.44838041 13.96289549 6 9 C4.57856668 6.26334791 4.57856668 6.26334791 3 4 C3 3.34 3 2.68 3 2 C2.01 2 1.02 2 0 2 C0 1.34 0 0.68 0 0 Z " fill="#5C3F13" transform="translate(92,108)"/>
<path d="M0 0 C1.25770356 3.73584538 0.89887504 7.04634672 0.5625 10.9375 C0.13827695 15.90214737 0.13827695 15.90214737 0.02734375 20.87890625 C0 23 0 23 -1 24 C-1.23481693 26.18292774 -1.41363323 28.37203174 -1.5625 30.5625 C-1.64628906 31.76003906 -1.73007812 32.95757812 -1.81640625 34.19140625 C-1.87699219 35.11824219 -1.93757813 36.04507813 -2 37 C-2.33 37 -2.66 37 -3 37 C-3.29032258 4.93548387 -3.29032258 4.93548387 0 0 Z " fill="#F1B554" transform="translate(38,17)"/>
<path d="M0 0 C0.66 0.33 1.32 0.66 2 1 C1.67 6.61 1.34 12.22 1 18 C-3.60057086 17.07988583 -6.79672559 15.89559434 -11 14 C-11 13.34 -11 12.68 -11 12 C-11.928125 11.566875 -11.928125 11.566875 -12.875 11.125 C-15 10 -15 10 -17 8 C-16.67 7.01 -16.34 6.02 -16 5 C-15.36384766 5.70576172 -15.36384766 5.70576172 -14.71484375 6.42578125 C-10.7304361 10.65538321 -7.49481356 13.09363611 -2 15 C-2 15.66 -2 16.32 -2 17 C-1.34 17 -0.68 17 0 17 C0 11.39 0 5.78 0 0 Z " fill="#98625E" transform="translate(107,205)"/>
<path d="M0 0 C0.66 0.33 1.32 0.66 2 1 C-1.96 4.465 -1.96 4.465 -6 8 C-5.67 9.65 -5.34 11.3 -5 13 C-2.02427802 14.70486569 -2.02427802 14.70486569 1.5625 15.8125 C2.76003906 16.23144531 3.95757812 16.65039062 5.19140625 17.08203125 C6.58166016 17.53642578 6.58166016 17.53642578 8 18 C8 18.33 8 18.66 8 19 C1.87036113 19.42273372 -1.05906948 19.02168763 -6 15 C-6.639375 14.525625 -7.27875 14.05125 -7.9375 13.5625 C-9 12 -9 12 -8.8203125 9.640625 C-7.8175299 6.41262006 -6.54200741 5.29591076 -3.9375 3.1875 C-3.20402344 2.58292969 -2.47054687 1.97835937 -1.71484375 1.35546875 C-1.14894531 0.90816406 -0.58304688 0.46085937 0 0 Z " fill="#FED375" transform="translate(194,31)"/>
<path d="M0 0 C0.77537109 0.24363281 0.77537109 0.24363281 1.56640625 0.4921875 C4.72518064 1.1513218 7.71194441 1.13188486 10.9375 1.125 C12.14277344 1.12757813 13.34804687 1.13015625 14.58984375 1.1328125 C17.53222592 1.01821801 20.14489223 0.68262539 23 0 C20.63286061 2.74089824 18.49398354 4.02493482 15 5 C11.6875 4.625 11.6875 4.625 9 4 C9 4.66 9 5.32 9 6 C5.7 5.34 2.4 4.68 -1 4 C-0.34 3.67 0.32 3.34 1 3 C0.67 2.01 0.34 1.02 0 0 Z " fill="#534943" transform="translate(137,197)"/>
<path d="M0 0 C0.99 0 1.98 0 3 0 C0.70462722 6.15725588 -2.41192006 12.01379912 -7.6875 16.0625 C-10 17 -10 17 -13 17 C-12.505 15.515 -12.505 15.515 -12 14 C-10.68 14 -9.36 14 -8 14 C-8 13.34 -8 12.68 -8 12 C-7.01 11.34 -6.02 10.68 -5 10 C-3.55577774 7.59514202 -3.55577774 7.59514202 -2.3125 4.875 C-1.87550781 3.96492187 -1.43851563 3.05484375 -0.98828125 2.1171875 C-0.66214844 1.41851562 -0.33601562 0.71984375 0 0 Z " fill="#E0ACA1" transform="translate(147,225)"/>
<path d="M0 0 C0 0.66 0 1.32 0 2 C-1.64453125 3.4375 -1.64453125 3.4375 -3.8125 5 C-4.87404297 5.7734375 -4.87404297 5.7734375 -5.95703125 6.5625 C-7.62080729 7.73318754 -9.30730211 8.87153474 -11 10 C-11 9.01 -11 8.02 -11 7 C-12.32 7.33 -13.64 7.66 -15 8 C-15 7.34 -15 6.68 -15 6 C-13.54195831 5.18697675 -12.08355685 4.37459869 -10.625 3.5625 C-9.40683594 2.88380859 -9.40683594 2.88380859 -8.1640625 2.19140625 C-4.83579588 0.3590573 -4.05497841 0 0 0 Z " fill="#E2D1AE" transform="translate(120,152)"/>
<path d="M0 0 C0.66 0.33 1.32 0.66 2 1 C1.52046875 1.55171875 1.0409375 2.1034375 0.546875 2.671875 C-3.41313415 8.63188877 -2.14618148 17.25026464 -1 24 C-3.74877278 21.75398486 -4.89506422 20.55362672 -5.56640625 17.01171875 C-5.55772297 9.62224976 -5.09786848 5.48020862 0 0 Z " fill="#664717" transform="translate(161,108)"/>
<path d="M0 0 C0.33 0 0.66 0 1 0 C1.02578125 0.86882812 1.0515625 1.73765625 1.078125 2.6328125 C1.39177693 11.64654849 1.39177693 11.64654849 6 19 C6.99 19.33 7.98 19.66 9 20 C9 20.66 9 21.32 9 22 C4.56063049 20.64352598 2.5843118 18.83191061 0 15 C-2.13068942 10.95169009 -2.33664413 7.54469573 -2 3 C-1.34 2.01 -0.68 1.02 0 0 Z " fill="#BF8329" transform="translate(74,115)"/>
<path d="M0 0 C0.33 0.99 0.66 1.98 1 3 C1.99 3 2.98 3 4 3 C4 3.66 4 4.32 4 5 C3.505 4.835 3.01 4.67 2.5 4.5 C-2.24961625 3.55007675 -6.03106875 2.85145677 -10.296875 5.33984375 C-12.26995038 6.82664701 -14.15823245 8.35416517 -16 10 C-14.21923008 6.36235887 -12.61470498 3.1533607 -9.25 0.75 C-6.13075734 -0.28974755 -3.26107717 -0.12542604 0 0 Z " fill="#B37F2C" transform="translate(91,104)"/>
<path d="M0 0 C4.48115095 1.40836173 6.79160213 3.63118224 10 7 C10.9075 7.639375 11.815 8.27875 12.75 8.9375 C15.56702018 11.5197685 15.74518469 13.26270878 16 17 C14.02 17.99 14.02 17.99 12 19 C12.33 16.69 12.66 14.38 13 12 C9.535 10.02 9.535 10.02 6 8 C6 7.34 6 6.68 6 6 C5.01 6 4.02 6 3 6 C2.01 4.02 1.02 2.04 0 0 Z " fill="#FECE6C" transform="translate(56,27)"/>
<path d="M0 0 C2.64 1.32 5.28 2.64 8 4 C8 4.66 8 5.32 8 6 C7.46375 5.67 6.9275 5.34 6.375 5 C3.50785479 3.611943 3.50785479 3.611943 -2 4 C-2.33 12.58 -2.66 21.16 -3 30 C-3.33 30 -3.66 30 -4 30 C-4.11586755 25.56271849 -4.18714058 21.12582409 -4.25 16.6875 C-4.28351562 15.42486328 -4.31703125 14.16222656 -4.3515625 12.86132812 C-4.36445312 11.65283203 -4.37734375 10.44433594 -4.390625 9.19921875 C-4.41157227 8.08377686 -4.43251953 6.96833496 -4.45410156 5.8190918 C-4 3 -4 3 -1.97558594 1.11254883 C-0.9976709 0.56183716 -0.9976709 0.56183716 0 0 Z " fill="#FED981" transform="translate(48,21)"/>
<path d="M0 0 C0.99 0.33 1.98 0.66 3 1 C3 6.61 3 12.22 3 18 C4.32 17.67 5.64 17.34 7 17 C5.6875 18.5 5.6875 18.5 4 20 C3.01 20 2.02 20 1 20 C0.67 13.4 0.34 6.8 0 0 Z " fill="#532F2E" transform="translate(147,203)"/>
<path d="M0 0 C-1.99954746 0.04254356 -4.00041636 0.04080783 -6 0 C-6.33 -0.33 -6.66 -0.66 -7 -1 C-8.63256758 -1.15714654 -10.27135338 -1.25085414 -11.91015625 -1.31640625 C-12.89951172 -1.35830078 -13.88886719 -1.40019531 -14.90820312 -1.44335938 C-15.94912109 -1.48267578 -16.99003906 -1.52199219 -18.0625 -1.5625 C-19.62967773 -1.62727539 -19.62967773 -1.62727539 -21.22851562 -1.69335938 C-23.81886884 -1.79981225 -26.40932186 -1.9018276 -29 -2 C-29 -2.33 -29 -2.66 -29 -3 C-19.63763472 -5.08052562 -8.22520783 -5.48347188 0 0 Z " fill="#C16263" transform="translate(147,204)"/>
<path d="M0 0 C1.32 0.33 2.64 0.66 4 1 C3.43410156 1.48210937 2.86820313 1.96421875 2.28515625 2.4609375 C1.55167969 3.09257812 0.81820312 3.72421875 0.0625 4.375 C-0.66839844 5.00148437 -1.39929688 5.62796875 -2.15234375 6.2734375 C-4.08380906 7.87747714 -4.08380906 7.87747714 -5 10 C-5.66 10 -6.32 10 -7 10 C-7 13.3 -7 16.6 -7 20 C-6.34 20 -5.68 20 -5 20 C-5.33 20.99 -5.66 21.98 -6 23 C-6 22.34 -6 21.68 -6 21 C-6.66 21 -7.32 21 -8 21 C-8.65693856 15.60762931 -9.22292487 10.92288844 -6.21875 6.19921875 C-4.23242106 4.00656338 -2.21601398 1.95879807 0 0 Z " fill="#61605D" transform="translate(115,156)"/>
<path d="M0 0 C1.62274751 3.24549503 0.77764588 6.57835811 0 10 C-1.4375 12.5 -1.4375 12.5 -3 14 C-3.66 14 -4.32 14 -5 14 C-4.938125 14.763125 -4.87625 15.52625 -4.8125 16.3125 C-5 19 -5 19 -6.5 20.8125 C-6.995 21.204375 -7.49 21.59625 -8 22 C-7.56902075 16.68458922 -5.50955757 12.43056145 -3.25390625 7.68359375 C-2.07148287 5.15298671 -1.01192004 2.60275247 0 0 Z " fill="#DFB07C" transform="translate(230,161)"/>
<path d="M0 0 C4.21234044 1.51171844 7.78193 3.61688287 11.5625 6 C16.6611147 9.21644588 16.6611147 9.21644588 22 12 C17.66444729 12.3534418 15.23586864 11.34401968 11.5 9.1875 C10.5821875 8.66542969 9.664375 8.14335937 8.71875 7.60546875 C7.37296875 6.81076172 7.37296875 6.81076172 6 6 C5.0821875 5.50113281 4.164375 5.00226563 3.21875 4.48828125 C1 3 1 3 0 0 Z " fill="#D0BDA0" transform="translate(70,221)"/>
<path d="M0 0 C4.12238791 4.12238791 3.05695568 10.95416615 3.0625 16.4375 C3.04653255 18.62504093 3.02730494 20.81257121 3 23 C2.01 22.34 1.02 21.68 0 21 C0.185625 20.29875 0.37125 19.5975 0.5625 18.875 C1.06001555 15.60561211 0.55356798 13.25990032 0 10 C-0.09000374 6.66486142 -0.05932794 3.33554853 0 0 Z " fill="#E39D40" transform="translate(230,105)"/>
<path d="M0 0 C0.70600342 -0.01764404 1.41200684 -0.03528809 2.1394043 -0.0534668 C7.21925153 -0.04676756 7.21925153 -0.04676756 9.66796875 1.83203125 C10.17263672 2.56486328 10.17263672 2.56486328 10.6875 3.3125 C9.02138095 3.355221 7.35367115 3.35313832 5.6875 3.3125 C5.3575 2.9825 5.0275 2.6525 4.6875 2.3125 C-2.12517213 1.7374043 -8.11321423 2.09826215 -14.47265625 4.65625 C-16.3125 5.3125 -16.3125 5.3125 -19.3125 5.3125 C-17.15934248 2.3519084 -14.54040706 1.43776785 -11.0390625 0.6640625 C-7.36194386 0.18993545 -3.70240793 0.05430696 0 0 Z " fill="#F9DBA7" transform="translate(46.3125,121.6875)"/>
<path d="M0 0 C0.66 0 1.32 0 2 0 C2 5.61 2 11.22 2 17 C1.34 16.67 0.68 16.34 0 16 C-1.218409 11.12636401 -1.35814586 6.00350833 -1 1 C-0.67 0.67 -0.34 0.34 0 0 Z " fill="#381D1D" transform="translate(105,205)"/>
<path d="M0 0 C0.66 0.33 1.32 0.66 2 1 C1.113125 1.721875 0.22625 2.44375 -0.6875 3.1875 C-2.80989117 4.94948512 -4.72841304 6.72841304 -6.6875 8.6875 C-9 11 -9 11 -12 13 C-12.72965366 15.56282742 -12.72965366 15.56282742 -13 18 C-13.66 17.67 -14.32 17.34 -15 17 C-14.92385572 14.26388205 -14.4602126 12.50724868 -12.60498047 10.46240234 C-10.75712732 8.81288032 -8.86744515 7.24013427 -6.9375 5.6875 C-6.27427734 5.13771484 -5.61105469 4.58792969 -4.92773438 4.02148438 C-3.29419234 2.66999276 -1.64826328 1.33349816 0 0 Z " fill="#FFE597" transform="translate(202,26)"/>
<path d="M0 0 C1.17949219 0.11085937 2.35898438 0.22171875 3.57421875 0.3359375 C4.47785156 0.43132812 5.38148438 0.52671875 6.3125 0.625 C6.3125 1.285 6.3125 1.945 6.3125 2.625 C2.06147771 4.75051114 -3.36067023 4.05825054 -7.75 2.625 C-8.389375 2.295 -9.02875 1.965 -9.6875 1.625 C-5.94784036 -0.86810643 -4.39679359 -0.4353261 0 0 Z " fill="#121211" transform="translate(129.6875,183.375)"/>
<path d="M0 0 C0.33 0 0.66 0 1 0 C1.05840224 4.18744075 1.09373166 8.37477565 1.125 12.5625 C1.14175781 13.74392578 1.15851563 14.92535156 1.17578125 16.14257812 C1.2094585 22.15396759 1.11038894 27.34183122 -1 33 C-1.33 33 -1.66 33 -2 33 C-2.09765625 26.84765625 -2.09765625 26.84765625 -2 25 C-1.67 24.67 -1.34 24.34 -1 24 C-0.84235595 22.22130274 -0.74899323 20.43681524 -0.68359375 18.65234375 C-0.64169922 17.57275391 -0.59980469 16.49316406 -0.55664062 15.38085938 C-0.51732422 14.24455078 -0.47800781 13.10824219 -0.4375 11.9375 C-0.39431641 10.79732422 -0.35113281 9.65714844 -0.30664062 8.48242188 C-0.20017161 5.65507805 -0.09815793 2.82764262 0 0 Z " fill="#DEAC75" transform="translate(233,128)"/>
<path d="M0 0 C-0.33 0.99 -0.66 1.98 -1 3 C-2.75 3.84375 -2.75 3.84375 -5 4.5 C-9.04618352 5.71320973 -12.99756107 7.07559646 -16.95703125 8.546875 C-19.31142113 9.06907237 -20.73462643 8.75342762 -23 8 C-21.97519531 7.67386719 -20.95039063 7.34773437 -19.89453125 7.01171875 C-18.53374877 6.57063753 -17.17307751 6.12921307 -15.8125 5.6875 C-15.13896484 5.47416016 -14.46542969 5.26082031 -13.77148438 5.04101562 C-9.115417 3.51927653 -4.77247216 0 0 0 Z " fill="#CCBCA0" transform="translate(172,230)"/>
<path d="M0 0 C2.475 0.495 2.475 0.495 5 1 C5.33 2.98 5.66 4.96 6 7 C6.66 7 7.32 7 8 7 C11.875 13.75 11.875 13.75 13 16 C10.53199953 14.84826645 8.95216435 13.95216435 7 12 C7 11.01 7 10.02 7 9 C6.34 9 5.68 9 5 9 C4.54625 7.88625 4.0925 6.7725 3.625 5.625 C2.27534014 2.03800992 2.27534014 2.03800992 0 0 Z " fill="#D5B3A6" transform="translate(104,223)"/>
<path d="M0 0 C2.31 0.33 4.62 0.66 7 1 C7.33 1.99 7.66 2.98 8 4 C11.96 4 15.92 4 20 4 C18 6 18 6 14.25 6.25 C10.54017494 6.16876295 7.46191974 5.38476789 4 4 C4 3.34 4 2.68 4 2 C2.68 1.67 1.36 1.34 0 1 C0 0.67 0 0.34 0 0 Z " fill="#615F56" transform="translate(93,195)"/>
<path d="M0 0 C0.66 0.33 1.32 0.66 2 1 C-1.35304372 4.91188434 -5.20478649 7.23624331 -10 9 C-13.5 9.25 -13.5 9.25 -16 9 C-13.77960908 7.10855588 -12.33274086 6.06492505 -9.4375 5.5 C-6.59442804 4.91680575 -5.91967204 4.08660004 -4 2 C-1.9375 0.75 -1.9375 0.75 0 0 Z " fill="#D19F6A" transform="translate(178,227)"/>
<path d="M0 0 C0.33 1.32 0.66 2.64 1 4 C-5.28571429 9.57142857 -5.28571429 9.57142857 -9 10 C-9 8.68 -9 7.36 -9 6 C-8.2575 5.7525 -7.515 5.505 -6.75 5.25 C-3.79875938 3.90852699 -2.15185026 2.39094474 0 0 Z " fill="#1B1B1A" transform="translate(146,175)"/>
<path d="M0 0 C0 5.94 0 11.88 0 18 C-0.33 18 -0.66 18 -1 18 C-1.66 12.39 -2.32 6.78 -3 1 C-1 0 -1 0 0 0 Z " fill="#DB9A51" transform="translate(223,19)"/>
<path d="M0 0 C-4.42236821 4.27495594 -9.19839226 5.51298598 -15 7 C-12.86147591 4.73489661 -10.67088393 2.95220832 -8.0625 1.25 C-7.39347656 0.80140625 -6.72445312 0.3528125 -6.03515625 -0.109375 C-3.57208067 -1.18726604 -2.47819942 -0.90922753 0 0 Z " fill="#D1BA98" transform="translate(187,223)"/>
<path d="M0 0 C4.13621084 3.3810038 7.81316569 6.66590534 11 11 C8.525 10.01 8.525 10.01 6 9 C6 8.34 6 7.68 6 7 C5.38125 6.71125 4.7625 6.4225 4.125 6.125 C2 5 2 5 0 3 C0 2.01 0 1.02 0 0 Z " fill="#AAA696" transform="translate(90,210)"/>
<path d="M0 0 C4.82360189 -0.19294408 8.49646738 0.24252386 13 2 C13 2.66 13 3.32 13 4 C8.38 3.34 3.76 2.68 -1 2 C-0.67 1.34 -0.34 0.68 0 0 Z " fill="#080605" transform="translate(125,196)"/>
<path d="M0 0 C0 0.33 0 0.66 0 1 C-6.15370839 2.823321 -11.59646678 3.2361959 -18 3 C-18 2.67 -18 2.34 -18 2 C-11.85221129 0.3722167 -6.35987804 -0.20190089 0 0 Z " fill="#F4B955" transform="translate(98,35)"/>
<path d="M0 0 C2.24893954 -0.10823773 4.49937575 -0.18569645 6.75 -0.25 C8.00296875 -0.29640625 9.2559375 -0.3428125 10.546875 -0.390625 C14 0 14 0 16.453125 2.015625 C16.96359375 2.67046875 17.4740625 3.3253125 18 4 C17.071875 3.690625 16.14375 3.38125 15.1875 3.0625 C10.22128454 1.6216844 5.13794694 1.35305964 0 1 C0 0.67 0 0.34 0 0 Z " fill="#9A9688" transform="translate(123,194)"/>
<path d="M0 0 C0.33 0.66 0.66 1.32 1 2 C0.06553465 4.03144641 -0.93224776 6.03533587 -2 8 C-2.66 8 -3.32 8 -4 8 C-4 9.32 -4 10.64 -4 12 C-4.99 12.33 -5.98 12.66 -7 13 C-6.34 11.02 -5.68 9.04 -5 7 C-4.34 7 -3.68 7 -3 7 C-3 5.68 -3 4.36 -3 3 C-2.34 3 -1.68 3 -1 3 C-0.67 2.01 -0.34 1.02 0 0 Z " fill="#5A574F" transform="translate(182,184)"/>
<path d="M0 0 C0.66 0 1.32 0 2 0 C0.85485202 5.41342681 -0.34012809 7.9342948 -5 11 C-4.1875 8.0625 -4.1875 8.0625 -3 5 C-2.01 4.67 -1.02 4.34 0 4 C0 2.68 0 1.36 0 0 Z " fill="#B4AF9F" transform="translate(178,192)"/>
<path d="M0 0 C2.64 1.32 5.28 2.64 8 4 C8 4.66 8 5.32 8 6 C7.46375 5.67 6.9275 5.34 6.375 5 C3.42782633 3.75908477 1.17065216 3.79321834 -2 4 C-2.99 4.495 -2.99 4.495 -4 5 C-3 2 -3 2 0 0 Z " fill="#FFCF6B" transform="translate(48,21)"/>
<path d="M0 0 C0.67546875 0.08378906 1.3509375 0.16757813 2.046875 0.25390625 C2.93890625 0.35574219 3.8309375 0.45757812 4.75 0.5625 C6.07257813 0.71912109 6.07257813 0.71912109 7.421875 0.87890625 C9.88432451 0.99456676 11.66538064 0.73638695 14 0 C13.67 0.99 13.34 1.98 13 3 C11.39667209 3.08121924 9.79215974 3.13929134 8.1875 3.1875 C7.29417969 3.22230469 6.40085937 3.25710937 5.48046875 3.29296875 C2.58352485 2.95081002 1.77444972 2.24606427 0 0 Z " fill="#EE938C" transform="translate(121,239)"/>
<path d="M0 0 C0.99 0.495 0.99 0.495 2 1 C2 1.66 2 2.32 2 3 C2.66 3 3.32 3 4 3 C4 4.32 4 5.64 4 7 C4.66 7 5.32 7 6 7 C6.33 8.98 6.66 10.96 7 13 C6.34 12.67 5.68 12.34 5 12 C5 10.68 5 9.36 5 8 C4.34 8 3.68 8 3 8 C0 2.25 0 2.25 0 0 Z " fill="#605E55" transform="translate(74,184)"/>
<path d="M0 0 C0 0.66 0 1.32 0 2 C-2.31 3.32 -4.62 4.64 -7 6 C-6.625 3.5625 -6.625 3.5625 -6 1 C-4 0 -4 0 0 0 Z " fill="#CCBD9F" transform="translate(120,152)"/>
<path d="M0 0 C1.50433594 0.01353516 1.50433594 0.01353516 3.0390625 0.02734375 C3.80992187 0.03894531 4.58078125 0.05054687 5.375 0.0625 C5.705 1.0525 6.035 2.0425 6.375 3.0625 C4.79132253 2.92045259 3.20806682 2.77369847 1.625 2.625 C0.74328125 2.54378906 -0.1384375 2.46257812 -1.046875 2.37890625 C-3.31850452 2.10011535 -5.42351823 1.67459423 -7.625 1.0625 C-4.98041621 -0.25979189 -2.94738699 -0.03427194 0 0 Z " fill="#916623" transform="translate(170.625,105.9375)"/>
<path d="M0 0 C2.35171131 0.59861742 4.6859378 1.26924352 7 2 C7.33 2.66 7.66 3.32 8 4 C5.03 4 2.06 4 -1 4 C-0.34 3.67 0.32 3.34 1 3 C0.67 2.01 0.34 1.02 0 0 Z " fill="#3B2B29" transform="translate(137,197)"/>
<path d="M0 0 C0.66 0.33 1.32 0.66 2 1 C0.89300099 4.21029714 -0.01603825 5.00968977 -3 6.8125 C-3.99 7.204375 -4.98 7.59625 -6 8 C-6.66 7.67 -7.32 7.34 -8 7 C-4.25 4 -4.25 4 -2 4 C-2 3.34 -2 2.68 -2 2 C-1.34 2 -0.68 2 0 2 C0 1.34 0 0.68 0 0 Z " fill="#736F65" transform="translate(173,186)"/>
<path d="M0 0 C4.41889613 1.35021826 6.34345343 3.26115668 9 7 C7.02 6.34 5.04 5.68 3 5 C3 4.34 3 3.68 3 3 C2.34 3 1.68 3 1 3 C0.67 2.01 0.34 1.02 0 0 Z " fill="#726F66" transform="translate(110,179)"/>
<path d="M0 0 C0.33 1.32 0.66 2.64 1 4 C0.34 4 -0.32 4 -1 4 C-0.938125 4.763125 -0.87625 5.52625 -0.8125 6.3125 C-1 9 -1 9 -2.5 10.8125 C-2.995 11.204375 -3.49 11.59625 -4 12 C-3.45660208 7.43545749 -2.20536179 4.0271824 0 0 Z " fill="#E3BF94" transform="translate(226,171)"/>
<path d="M0 0 C3.77300358 1.0197307 4.80206144 1.65872662 6.8125 5.125 C7.204375 6.07375 7.59625 7.0225 8 8 C7.34 8 6.68 8 6 8 C6 7.34 6 6.68 6 6 C5.01 6 4.02 6 3 6 C2.01 4.02 1.02 2.04 0 0 Z " fill="#FFD87E" transform="translate(56,27)"/>
<path d="M0 0 C-0.33 1.32 -0.66 2.64 -1 4 C-4.75 5.125 -4.75 5.125 -7 4 C-3.375 0 -3.375 0 0 0 Z " fill="#F9F3DB" transform="translate(109,159)"/>
<path d="M0 0 C0.33 0.99 0.66 1.98 1 3 C-0.32 4.32 -1.64 5.64 -3 7 C-3.99 6.67 -4.98 6.34 -6 6 C-4.02 4.02 -2.04 2.04 0 0 Z " fill="#C5C0AE" transform="translate(167,210)"/>
<path d="M0 0 C0.66 0.33 1.32 0.66 2 1 C2 1.99 2 2.98 2 4 C0.02 4.33 -1.96 4.66 -4 5 C-4.33 4.01 -4.66 3.02 -5 2 C-2.625 0.9375 -2.625 0.9375 0 0 Z " fill="#462F2D" transform="translate(116,198)"/>
<path d="M0 0 C1.60080151 4.00200378 0.29279692 7.04556236 -1 11 C-1.33 11 -1.66 11 -2 11 C-2.25 3.375 -2.25 3.375 0 0 Z " fill="#E5A652" transform="translate(38,17)"/>
<path d="M0 0 C2.40072955 2.88087546 4.47291037 5.56404834 6 9 C3.53199953 7.84826645 1.95216435 6.95216435 0 5 C-0.125 2.375 -0.125 2.375 0 0 Z " fill="#E1A99F" transform="translate(111,230)"/>
<path d="M0 0 C2.97 1.98 2.97 1.98 6 4 C5.67 4.99 5.34 5.98 5 7 C2.5 5.75 2.5 5.75 0 4 C0 2.68 0 1.36 0 0 Z " fill="#1A1A1A" transform="translate(110,175)"/>
</svg>
