<?xml version="1.0" encoding="iso-8859-1"?>
<!-- Uploaded to: SVG Repo, www.svgrepo.com, Generator: SVG Repo Mixer Tools -->
<svg fill="#000000" height="800px" width="800px" version="1.1" id="Layer_1" xmlns="http://www.w3.org/2000/svg" xmlns:xlink="http://www.w3.org/1999/xlink" 
	 viewBox="0 0 512 512" xml:space="preserve">
<g>
	<g>
		<path d="M256,0c-26.193,0-47.504,21.31-47.504,47.504S229.807,95.006,256,95.006s47.504-21.31,47.504-47.504S282.193,0,256,0z
			 M256,61.615c-7.781,0-14.112-6.331-14.112-14.112c0-7.781,6.331-14.111,14.112-14.111c7.781,0,14.112,6.331,14.112,14.112
			S263.781,61.615,256,61.615z"/>
	</g>
</g>
<g>
	<g>
		<path d="M333.453,175.947l-20.538-61.615c-2.273-6.817-8.653-11.417-15.839-11.417h-82.155c-7.186,0-13.566,4.599-15.839,11.417
			l-20.538,61.615c-3.598,10.798,4.448,21.975,15.839,21.975h123.231C328.997,197.921,337.055,186.753,333.453,175.947z
			 M217.549,164.53l9.407-28.223h58.088l9.407,28.223H217.549z"/>
	</g>
</g>
<g>
	<g>
		<path d="M112.334,314.077c-26.194,0-47.504,21.31-47.504,47.504c0,26.193,21.309,47.504,47.504,47.504
			c26.193,0,47.505-21.31,47.505-47.504C159.838,335.388,138.528,314.077,112.334,314.077z M112.334,375.694
			c-7.782,0-14.112-6.331-14.112-14.112c0-7.781,6.33-14.112,14.112-14.112c7.781,0,14.113,6.331,14.113,14.112
			C126.447,369.363,120.116,375.694,112.334,375.694z"/>
	</g>
</g>
<g>
	<g>
		<path d="M189.788,490.025l-20.539-61.616c-2.273-6.817-8.653-11.416-15.839-11.416H71.257c-7.186,0-13.566,4.599-15.839,11.416
			l-20.539,61.615C31.281,500.823,39.327,512,50.718,512H173.95C185.332,512,193.39,500.832,189.788,490.025z M73.883,478.609
			l9.409-28.223h58.086l9.407,28.223H73.883z"/>
	</g>
</g>
<g>
	<g>
		<path d="M399.666,314.077c-26.193,0-47.505,21.31-47.505,47.504c0,26.193,21.311,47.504,47.505,47.504s47.504-21.31,47.504-47.504
			C447.169,335.388,425.859,314.077,399.666,314.077z M399.666,375.694c-7.781,0-14.113-6.331-14.113-14.112
			c0-7.781,6.332-14.112,14.113-14.112c7.781,0,14.112,6.331,14.112,14.112C413.778,369.363,407.447,375.694,399.666,375.694z"/>
	</g>
</g>
<g>
	<g>
		<path d="M477.12,490.025l-20.539-61.615c-2.273-6.817-8.653-11.416-15.839-11.416h-82.154c-7.186,0-13.566,4.599-15.839,11.416
			l-20.539,61.615C318.613,500.823,326.659,512,338.05,512h123.232C472.663,512,480.722,500.832,477.12,490.025z M361.214,478.609
			l9.409-28.223h58.086l9.409,28.223H361.214z"/>
	</g>
</g>
<g>
	<g>
		<path d="M314.46,347.453l-41.768-41.767v-59.067c0-9.22-7.475-16.696-16.696-16.696c-9.22,0-16.696,7.475-16.696,16.696v59.067
			l-41.767,41.767c-6.52,6.519-6.52,17.091,0,23.611s17.091,6.52,23.611,0l34.853-34.853l34.852,34.853
			c6.518,6.52,17.09,6.52,23.611,0C320.98,364.545,320.98,353.975,314.46,347.453z"/>
	</g>
</g>
</svg>